<mxfile host="Electron" agent="Mozilla/5.0 (Windows NT 10.0; Win64; x64) AppleWebKit/537.36 (KHTML, like Gecko) draw.io/24.7.8 Chrome/128.0.6613.36 Electron/32.0.1 Safari/537.36" version="24.7.8">
  <diagram name="Page-1" id="JpR2S7AvpGEYRiNbT4Ce">
    <mxGraphModel dx="2074" dy="1196" grid="1" gridSize="10" guides="1" tooltips="1" connect="1" arrows="1" fold="1" page="1" pageScale="1" pageWidth="827" pageHeight="1169" math="0" shadow="0">
      <root>
        <mxCell id="0" />
        <mxCell id="1" parent="0" />
        <mxCell id="Aihu2LdOpN7aua6iw54k-6" value="" style="rounded=0;whiteSpace=wrap;html=1;" vertex="1" parent="1">
          <mxGeometry x="90" y="560" width="290" height="490" as="geometry" />
        </mxCell>
        <mxCell id="Aihu2LdOpN7aua6iw54k-7" value="" style="rounded=0;whiteSpace=wrap;html=1;" vertex="1" parent="1">
          <mxGeometry x="454" y="560" width="310" height="490" as="geometry" />
        </mxCell>
        <mxCell id="8f3zKisQWfTtFi9QEEFh-31" value="" style="group" parent="1" vertex="1" connectable="0">
          <mxGeometry x="354" y="1108" width="473" height="61" as="geometry" />
        </mxCell>
        <mxCell id="8f3zKisQWfTtFi9QEEFh-32" value="" style="shape=image;verticalLabelPosition=bottom;labelBackgroundColor=default;verticalAlign=top;aspect=fixed;imageAspect=0;image=data:image/png,iVBORw0KGgoAAAANSUhEUgAABRcAAACQCAYAAACSyFyCAAAAAXNSR0IArs4c6QAAAARnQU1BAACxjwv8YQUAAAAJcEhZcwAADsMAAA7DAcdvqGQAADSaSURBVHhe7d0NfFTlge/xf3iRBEFDRZ1YtARDJYiVULUkhVqGYpdwaddEbE1WCya2F6HeVtDdSqSfYqJ7lWirRPdWItbdxComtnUJu1rGtriJu7UJXSlxa2BQsRmFSlQ0QYJzz8szk0kyeRuCTMLv62fM8zxz5szkkJzM+c/zkhC0tLe3yzZq1Cjna6xaW1uVlJRkarELBALyeDymFpvBeC0cl+g4LtFxXKLjuETHcYmO4xIdxyU6jkt0HJfoOC7RcVyi47hEx3GJjuMSHcclOo5LdByX6IbKcUk4cuRIcPfu3SopKVFCQoJpjs3Ro0c1cuRIU4tdW1ubEhMTTS02g/FagsGg85Xj0hnHJbrBOi4vvPCCs4+LL75Y48aNM60Dx89LdByX6Dgu0XFcouO4RMdxiY7jEt1wOy6h9y8zZ87UqaeealoHjp+X6Dgu0XFcouO4RMdxiS7ejsuePXucACvki1/8oin1Dz8v0R3P47J27dqOcHHatGmmGQAAAAAAAAB619TUJGdYtB0upqWlaenSpfrhD39o7gZwIvzoRz/So48+qu3bt2vSpEmmFQAAIH4tWLDAubjw+/2mBQCAgXvqqad0yy23aNOmTfryl79sWhGPQtmF/be/W7ho/wMCOHGWLVsWDhfnzJljWgEAAOLX1KlTw+Hi5MmTTSsAAANjXwvb18R2NmVnVIhfoezC/ts/wrQBAAAAAAAAwIAQLgIAAAAAAACICeEiAAAAAAAA4tOLJUpJSHBWTE7IKFWDae4uoMqrzXYJKSp6vs20nxiBx3PNa0lQ7uMdK2APR4SLwBDVcaIqUZ1pi1R3R+ikGrlNxMn26kqr9smpuyP66wQAAAAAoEezs7V6pinvqJBvhyl31bRFFZtN2bNSi+YlmgqON8JFYBiyg8WstaaiYtUG1yjT1D55dSpJiHw9AAAAAAD0V4a8eRmm3KCK56L3XfRvr1aNKWfcnH0Cr4FdnmuqFAwGnVvVNR7TOjwRLgLDjN2jMX6CRTvozFKRKQMAgJNX51EVXW8pmu7N1coHfAq0mwccN5HD5nJVuc80D9S+SuWGXv8djM8AgOMpY0G+wvHivTVRRsX55dscjhaVvyC0NT4JhIvAMGIHiyl51aY20GDR7WHY+Y1+9zfcHRcG9jDnyDfnobYQ976OoLNIWZHbRLwhH+7zTwAAgL4E1Ph8tcpumq+MnHI1mtbhqGVnuUqf5r0PAAzIzBytWGDKgQ3yvWjKIU0+VW415YUrlBMaRm1p2VmtkuuzNMVcf07JLFTJ041qMfeHRH4IVrK1UeXfnu7M9Zhy0SKV7zQbBXwquzFXWVM7tp2SGf3DsV7nXGxpVPUdhR37mZqlwjuq1dj1RVmGwtyNhIvAcGFPchsOFnNU8cYAgkUn6IvWw7Ba+edaJ9auJ26HHRamKD80p4XDavuE53IEAADDS+CZQq3e5De148GjvCfdYWrBYJXyJpnm4609IN9di5R+UaFqT+waAwAwBKXKe022KQe04bnOfRf9z1fKZ8rZS7zW1i7/MyuVfVGuijbVKfSXxf9iuYpypiv9uspwW1db1hWo8OFG59o2cCBDqWlWYW+l8jPma+VD1aprcjZz+F80H45dUdbLYjMR9tZo5cLpyl1b3rGfpjqVr83V9PR8Ve41bUMI4SIwHLxYooTMjmiwuG5gb5QD26vkxpJ2b0fzZvuNCuU4bVK9v4e4cEmFmp3tm1WxxLRtrpLP6e3ovnGvXee0WkL7PrHDtAEAwIlXXGfeb4Ru7+/RtjuzrXcPrprnG4bdh5WBzSs0/7YaPoQFgBilzs1ROF580Bcxas4eEh2KFgtUsNhEiwdqVPrtMmc7z7UV2tNq/81pVXONe00a+Od8rezhw6y6vbNU1Wy2//1qeROttn9epUrnJJ6hNc8edP9+HTmo2nvdVxV4fqXKno7S9bCTFtXcXaAyuwOPJ08Vr7Y6+2l9Y4vWzLbaApXKv7G8x9AzXhEuAkNekbIigkVb0b0D6z3YMdGsOcna3a7PzTeBo1TdFO3UlqOKe/PMRYBHeTcXOyW7t6O/P3MXTcpTlbmgGO6T2wIAgD6MS5X3llXWJaHRFura12V+xJd8Ksme4tSnWO9/aiKu4dxhb/M1PcXdPuWi+T0MMet9zsX+Dp/rkd2zxbyGhBS7B4r7fB0jTKx3S3kp7v2huRoj529kFAgARJfmVc5CU44cGr2jWmXPmfKybHknukX/M2Uqc06oXhWvzVOqs3h0ojwLC7TySrss1dxfHbW3YcatBcpxLlOt7SclW18Dan41dHZuVsNL9fIfsoqjkpX5/S3mejqojVfa2/aiqUplD7n78a4rVl6au6J14qRsFdxouvdsLVN1xIrYQ2FhGMJFYNjIUU6492C+VgxwLobIeRwi3/z2bJZSP6lhRAAAYHg75JfvnlKVm6oS3Yutzvza8N18FW11P/T0T0hVunMN16aG++zhxvawN58azVugwE6fGWK2SKU7+jcOOdbhc2F2sJiZ7/Zs8eRp4/Plypvs3gUAOFapWnRtaHxdQBt+5bP+AkgNz1eEA8JV12TLjffa5G8MLfDiU2HEHIkJCVOU/7S5a0e9og3U885IN6UQj7IWdjx3zW3zNWV8iqbnrVb51ka19HMxsjZ/Y3hFa9+33Q/LQrcp14WuwxtUHw4yhwbCRWCYsIdCVz1Zq3D/wbwV/V79sPNCMFJOZbOCwY59AQAADKaizMiLPOs2fkqnIcMFV3rDQ6Q7NKhuwmrVH3SHoe15JN+ZU6vtuSJl3+w+1rN4vWr3u707DjZsVJ69k0CNVi9crZoD9j56cQzD5xyH6lRyjQkWrUcUP12ugml2SOpOFdNcGbooDb3XsvZ/O5PFAMBAeBbkh3u5Bzb5VHuoQb7HTLToWaPsuaEPp1oU6NfchW1qixIMThjf/UMuzzXlqr8/Jzyfox0yNj5eqsLs6Zpw7nwVPlDXZy/3lgN9fkzliPaa4hnhIjAM2PMWOfMzWG9kC8JvXKuVf3N/htXUqTwULJo5FBmmDAAATpTUZVVa08OwshXLC5Rh3zUqWake+8IvoOqHS837nQKVPbJKmWY4XPLMApU/ssKtBMpU+nTvF3THMnxO+30qWZClImeIXqbWPFtjvTfrfmHao4jpYoJPhqadAQB0M9Gr7GWmHChXzX1VqjBDiD03LnLmRnQlKtn8PXAXPDXn2G63gaxXkKyM71Zpz5GD2lVXpY23FMg720SNAZ/Kb8pS+m1ub8qeJI5LMaWID5qi3IbaNTnhIjDkFVsnNFO0eK4pi1hcZYDDoy9K7Xgzu8+velMEAAA4rjzp8i5ZoQ01e1T/SGSvkEheZbjjoDu01Kt2sylfad0fvpB0JWZ4lWfKvufqevnQ9diGz+mBIhMsWjyzlOUkoACAwZcs75XmgyPrrF66tsR86JOh1Ysje4MnK936G+CqVn1jROTX5tPq0Dk+lnluR1n7np2jgrs3alvdHgX3Vyn8iu6qi/4hlJGcnmH9NXNVN+yKCCLb5Ls19Hen+3zA8W5Ea2urDh8+bKoAhr7IxVXs4dHlEato9WFtaMWtgCpv7ljQ5VikpoV6UlpvxiNPkBETl+cOcH5IAAAwtHVbLbp5l7Y9uUErFqaaubKiSVZS186Ah1rUbIoaJSWZYpgnRdNNsXfHNnyuk0CZih6q67XnCgAgdslzs8NhXtjMfHlnmrKROi8vvLp06dpi1TiXnS1qeKhUpU6rRyuuze5nb/EGlWaY8C8lX+U7OgZAt+xr7vhbtMDT+/7SvMoLLUpzT5GKt7rXwi0vlan0Hqcoz/ICZUf0poxcHyEer53b2to0IikpSWPGjDFNAIaF2WtUu86U7dWkQysRRhU5lNra1jlppSg/1AvgGHlSZ5lStfLPtfdd0v+wEwAAoDfjkhUeYNYutZpiWKBZu0wx+iIxIcc+fC5zXZUqlruXlA3WRWxFk1PsMGoAw6QBAD1L9irnFlM2sm/KUYYph6UVaEOlmWrixRItclbyn6BZN7s91TNvqVDx4v72NM/QioeK5bV3FqhUYcaEcOA3IWOl6ZiTqeJ17nzAPUtVwYMV7pzA1pVxSXaKu49LV7sLvcxepYp1oUVphoZE6+8rw6KBYSpzWYX11thYm6WS0FCdKOyl7TvCSJv7pjo88Xi4R2MMOgWdti49GAEAAGKVnK6MUA+Qp31q6LJoS1uDT5WmnD0vo5feJMc4fO67W+S7PUd5t5aa9181KlpX3Wlbz7n960MJAOhLorIWrok4p2crZ270SC/1mgo1vlyl4mVepZsHpM7O0arKXaq52zugEC/Rurbd1lCrinURcy1aPDO8ylm+Qduaa/s33+7kPFU07lKVvZ8Z5kWlZSrnlgrt2rpe3i5TfAwJQUtTU1PQLi5dutSuAjiB7N9D+/dx+/btpgUAACC+paWlOe9f/H6/aemudp2cbexbcZ1p7FNzsGJJ6HE5wYo3THOEg79aEbQuzZxtPIvXB2v3m/aGjcE8j3msZ1Vw2/tue4/7fHVjMNvsR7PXBLc0240Hg/X3ZpttPcEVvzrobOp4oyKYE9p+Xa1pDFrbZ4a3X/Vsq2m11BWbdgUz7qx3mlpDrylyX0sqrFcIACenTZs2OedC+yviWyi7sP/203MRAAAAwJCVvHi9qu/0Oj1YAs+sVtaZoWFqhaq0uw56srV+a7G845zNezZIw+cybijVGmfeL3uhgbKOif0npYZHlTTcNst5jUn3MVkMAGDoI1wEAAAAMIQlKvMH25xhb+uXZ4eHvdnD1ArWVWlX4xatmtm/+Q4HZfjcuEytXrfChJSrVRyafH9Snsq3r1deaAicvUJ260F1LAkAAMDQRLgIAAAA4LjLvL1jYZQ1s01jnzzKe7LvxVRsyTNytOrBLdrV7G7f/PI2bbw9R+kDnBXf3s+aR7aF97Onrkrrr0nvHixOylOV+X6Ct2eaRlfy4g1qNvdVXWPCREvynFWqeLnZfYy9QvadZtL+yH09aXpPAgAwRBAuAgAAADh5tOzSrldNWelK7SWwBAAAfSNcBAAAAHAS8Kv8igQlTJivkh1ui2d5ltLdIgAAiBHhIgAAAIDh75Bf/vdT3bInXdm3VMh3txmWDAAAYka4CAAAAGD4G+dVcd2e8HyHW+7OU3pfK0gDAIA+ES4CAAAAAAAAiAnhIgAAAAAAAICYEC4CAAAAAAAAiAnhIgAAAAAAAICYEC4CAAAAAAAAiAnhIgAAAAAAAICYEC4CAAAAAAAAiMmIQCCgAwcOmCoAAAAAAAAA9G3//v0a4fF4NHHiRNMEAAAAAAAAAH0788wzGRYNAAAAAAAAIDaEiwAAAAAAAABiQrgIAAAAAAAAICaEiwAAAAAAAABiQrgIAAAAAAAAICaEiwAAAAAAAABiQrgIAAAAAAAAICaEiwAAAAAAAABiQrgIAAAAAAAAICaEiwAAAAAAAABiQrgIAAAAAAAAICaEiwAAAAAAAABiQrgIAAAAAAAAICaEiwAAAAAAAABikhC07N69W2lpaVq6dKk2bdpk7gJwIixbtkyPPvqoNm/eLI/HY1oBAADi17XXXqu9e/fK7/dr8uTJphUAgIGxr4Xta2I7m7IzKsSvUHZh/+1P+PDDD4N24cILLyRcxJAVDAb1ij+g//7zm9rxP/vU9Pp+fWy12UaNHKF/uWuZRo8a6dTjXegXFAAAYKghXAQAHAvCxaEjlF00NjbScxFD11t/fU//+tuX9Wxdo17602tqPXzE3NPdvauv0jcXXmJq8S30C3rVVVdp3LhxphUAACB+vfDCC2pqaiJcBAAcE8LFoSOUXTg9FwkXMdTsP3hIdz68VZufrQ/3TuzL+eeeqd9tulkJCQmmJX6FfkG3b9+uOXPmmFYAAID4NXXqVMJFAMAxI1wcOiLDRRZ0wZBx+KN23b3pWV2W94964t//0O9g0bb7jf2q+2+/qQEAAAAAAGAwEC5iSHiurlGZ196tH/+LzwkZY7H53/9gSgAAAAAAABgMwz5cbHn/Q33j5p+Gb4VFPzP3HH/+fQd01f/5p063kP+ob+r0ujY+td3cg0gfHWnXbff/Ut+y/t0CB94zrb07c8J4XXLhZC2c8znlLrjUul2mr3kv0dHgKP3sVw2q+veXVfPbV6x/g71668D75lEAAAAAAAAYqGEfLn700VH95x/3hG+/37nX3PPJeMl6vtCt5b0PTas9b+D7nV7XnjcOmHsQcujDw7rye/9Pj/6yzrRElzjmFH3hovP1t95LlD03Q+ed41FQo/X2wVbt/UuLdTuoN996V/4339E7h47oj6/8RS/ueE3/vv1/VFZRq3s2/kb/+nyj/vTqW2aPAAAAAAAA6A+GRSMuHXzvQ33tpgfV8MobpqW78889S1fOv0QXT5ui9o9H6I233tVb7xwy90bXPiLB+qnvvKjL+x8c1n/99+t6omZHzEOuT4hAnSrvKNT8zCnOQjX2LeWi+cq9sVTVO1rMRkPUvkrlmu8p4epKBUzzMelhn3V3mDbrVvKiaRywOpWE9p1QYtUAAAAAADg5EC4i7rQdPqK/+8EmveKP3pNw8jkTde3iL+pTycl6PfCu2tuPmnv69sGhD3T2JI+pdXfwvVZTimdtanggV1NSspS/tly+FzsWqgns9Kn6odXKzZigKdeXq7H3rBUAAAAAAOCYEC4irgSDQa2864moPRZHJCToqgWXKuWsidq15219/HH/V4sO+es772mC5yxT665lCISL/scLlH1Ttfpa+9q/qVDeGyv73O6kMSlPVdbPl/0zFnwyT6GIOfN202bd1sw2jQOWqTWhfQfXWDUAAAAAAE4OCdbFcHD37t1KS0vT0qVLtWnTJnNX/Kht2K1XX3tLB9/tmLOwvz5oPayHN3cslpI8fqx2/GKtqbn8bx5Q/Z9e05tvtcQUWI0ZM1pp556pOZdMVZJVDrEXdJn3rfWmJqWdd5Z+velmp/zLbTv0f+78uVO2XfTZT2v+7HRT6+5r3os1xXqOrqqerTelDrlXzDIl1+7X96t+12v6y/53FYzh+1uRP0+jR400NelI+1H97qU/q+m1/Wpt+8i0dvadb17e6Vj0V/FPa/TgE78ztQ5TPj1RGReer71vvmNaYnP2GeN1yfx5aq5vcIKgrv7XvHRd9rnzTO3EWLZsmR599FFt375dc+bMMa2GPbT33HxVm2rmsg0qXlsg7+REt+GQX3WbS7Xq+rLw0NycymZVXdNzb824FPl9LqlQc0QYCAAA4s/UqVPV1NQkv9+vyZMnm1YAAAbGvha2r4ntbMrOqBC/QtmF/bc/rsPFD1o/0nV/X64//Ok103LsTh+fpD/+4oemJv34sV/r/se26eMoQdNAnXXGeG26c5kuTDvHqfcWLv5iW4O+d+cTTrk/Hr7jOi3Imm5qHR56/Df6vxv/zdSklflerb7+ClOTSjc9qwf+xWdqsdn5zI80buwYp2x/T9/6h0f0enPvIV999e361Omnmlr//NfOvfrbiBW1Qy6/5AId+XikDh8+YlpiZ38fX8y+QqccfEv79v7FtHZYePk0Zc78jKmdGL2Fiw33zdKsmxuccsbttapdlykTK3bS9kKRsuaWyNly5nrVN6xShlUMPJ6rlDw7sstRhb9cGQ1lKr27XOX20Oq0bK24rVjFyzKUHPCpbF2pSh+qkV+pyly2QsV3rpK3S8IXeL5MxQ9VqGZznekhaW27JFv5y4u0Yl6UOLClUdUPlKrsyS3y7QxInnR5FxZoTdd9dwkX99zvUfVtRSrbZD+P/XoKVLR2jbIjrl3suROzzOcGxTW75Hk6V0UPN0ozslX8+BYVJEcPLDs9rs7tvdhwj3Wcb7WPXobWN9Rr1Uz3fleDSjNmafUOqxg+tvaci1kqcu4vVm2492KX9iMFar2vSEU/LVddk3W0ZhdoxZ3FWhXlWLW8UKaiu8tU9UyjAva/zU1FKl7sV0FqtNC1p+cHAOCTQbgIABgMhItDR2S4GNfDou999NlBDRZtCdZ/ITsa39CPf/brQQkWbW//9X39/foqUzvx7GN3rMGiLXL5k7X3/7LPYDEW7Uc/1urS7sfuq1kX6YO2jwclWLTZgbXttDNOd74OLX41bneDRSlbK66LHizaEucUaMVCU9lRq8Zui6T7VX79LE3PKXKDRVtTjcqstuzrC7UoY75WOsGiza+6Tas1P2O1fBFzOPofz1eGd6XKwsGize45WaaV3gzNfyD0Wo291Sq8dLpy7Xki7WDRFmiUz9n3fJW+1Oa2dbW9yLl/tRMs2uzXU6RFmfmq3uc0dLNlXYEKH250Fm0JHMhQaprb3l8ZC6zvzSk1qOK5Lt/HDp8q7GDR4r0xx2zXH1tUdIV1XG51g0Wb/8VyrbaOVdHznb93+9imz7WOrR0s2g32v81NWcpeu0VDfKkeAAAAAMAwE9fh4n/8wVyBD6Kg9V/IC/WvmtLg2fnqm85Kx/Hgd7//sykdm1D4evTjj50h6v0ywLz2gcrn1fT6flNzXfmVS3Xg3TYNUvbrGJt0ilsY7fbE7Mqe1zF+BeR/2hRnejWr18AsVbPmhnrDVcsfWho5rEG+59O1vu6gMzz84PbicE+3uk3lql+wUbsOWr8tR5pVtdzsJ1Cq8q2hHdWp8maz4vLMNdq238w3uL9W651QMyDfTWWqPmCXbQFV3pqrcudXOlPFPvd5g/4K5dm7D/i0em1FREgZIeCX58ZtOnjEfj0Hte12E+cFKlW2NeojVLd3lqqa7dfUqubfr5a3pxS2JzNzwuFsQ6XP7QFq1D2z3tSzlTcv1Sn1T512TSp2j2vwoNPr1BVQydZahePFAzUqDR1bT542vuweq9ZXqzTr1Uod+8cFAAAAAAAMnrgOFwMH3jMl13e+8SV977qvDOh2w5K55tHddd3/ly+7IOo++rrZw6EjvdGPnn2RPSht9pyL0fYdup0fZb7Fvrz5duc+Tn8zd0bUffd1G3PKKOfxb1nHyw4YQ+z5K6Ntb9+SQiFeP/3C90dTci3/u2xlX9FlvsFBcGqi+7ragtF/9E8d4Os+YaamKMUUe5IyOcuUovOsK9Kq2clOOXmOV4ucks3rzOOYbt81yqPsK/PdZktbuykEmrUrlDMGGlT3st+9b2KmVtXY4Zl926icie4matqi8s1u0bOuVGvmuc+ryXlafasJC7eWqdr0COzEU6zS271Ktn8MRyXLm53rtlt8gW6pqSPj1gLlOJloojyTzHMNSKpybyhwizvWq+ZFt6g2n7Y8aJ5zWYFyB9QjMkeld5rjqmRlLltptRh7A+EeiS11NSozT+FdV6yCGe7rT0zLUbH1fUXHgjIAAAAAgBMjrsPF9qNHTcn1nasv1/e+9ZUB3W5Y8iXz6O7a2zvvf94XLoi6j75uZ59xmtmD66MjnfcbTbBL176LPjsp6r5Dt2iLufTl6NGOINC20A4Xo+y7r9spo91w0R66HCn5tKSo29u3gS7mUvLdr5mS9PWvXKovXDZTI8ckafI5Z5jWwZGU5PZY/OCj6N0hTz9toF3cTpDtfjWbYk/8Tc7MfD3KSuup112GUieZoiVx/ARTkmr3mmf1ZGnREreoQI2KvFOUdO505d9arppXug/cbWlsCPe46/q8Gd+vN6FY17kNjbmp6vQIT2pHKNcD74yeF0fqr+S52XKjvIA2/Mrn9Cxsq/Op3AR/BYu9GlhsOavTcdVET+fvy/Dv7JgewHtR5y2SL/X2+b0DAAAAAPBJiutwESePObPStPKaL+vMT52m3K9/RaFFrT83fXAXV5kwYZzz1d79Kad0D0CTxyeZUjzyyLPAFAO1qu911gC/doUXSc9RamiEdL9MUFIPGWugPTR416O8n9Zrw5KI8CvQqMp7CrUofYJSvIUqe6EjZGw71FcUOgBu1t2rCeMHISSemK28H7gHLrDJp9q2NtVuLTHDldcob2EsPSIjJCZZR7q7tvbovTEBAAAAAIhHCUeOHHFWi542bVrcrRY9Y/EPdejDw6Ym1Vfdrk8lD2wFYnuRlcuuLjG1zqtF/0NplX5e83unbPvRd7+mb/1t70NJo1m8/AG9/Oc3TU166ifLdcmMzwxotei8//UF3fn9K02t/3pbLfr7dz2hp3/dMVvcT277pr4+P1rXsP6xF3L50t/dbWrS5E+fod88doupDY7aV97Re+0d6VHw6FE9/LNf6kiXXqax+vLcmRpz9rlO+fDeV/XuwY4VSsYmjtY/fMdraidOr6tFh1cxljzXVqj2sbzovd8ez1dWXmhOxGirRUs5lc2quiaUOvay2vCLJUrIdO/RuloFb+8y6PZAo+q216rqmUrVbveFFyuxA8g1Pr+K5yUqsDlfKVdXOq2dn7cHXVaL7lgV2RJ5X8Tribbqcyc97LPXx+0o1ayM1Wqwtix+tlwHr1ikUqvZYz1vc6fj0M/VojsNWY64L+L1NNyVolm3uQFjt9fT23EBAOAEOv300/Xee+8pLW2Aq6gBwAnw9ttvO1/POuss5yvih/23xP73YaXoocHOLn7zm9+c3OHiD+6t1uNb/ssp2+w5F2dOc4Ongajc8p/O84T88sGVuviCScMuXGze/64yv3mXqdm9/MZq6ZUDC2PPOuM0XTxtki5MO8e0dDjcHlTzux/pLy3teq+1I0xseGmHagdp8Z2vZs+Vxro9zoL7/Nq/v6N33bQpZylvcf/X/j1eegsX1VSuRVMLVWOqqUvWa8O6AnmnJTsrR7e1+FX78GoV3lodXhwlMsw7LuFiFy1Pr9SEnDK3Etreet3zrdftDI2+ZZta7/aGV7puecba/mvu9uHXFC/hohpUmjFLq3dIHns4d5NfAWVofUPXIdyDFy5GHg/vg7u0bXnHEO+WpwutY1vuVggXAQBxJBQuAgCAk4sTLgYtdrhof8p4svdcHCz11dbrPP3UYRcu2nMuTltY1G3uxVhcs+gy3XVz59njAu8d0UftQWfM8v5D7dr/vrt6yIeHPtBjP/+3TovJxGLkiBGa//W/UcLIkU79w1df0aFDrU7ZtuCLn9XcS6L1A/xk9RouWjr1SuxD196NgxYuhnv02c+xUTX3FijDXrylvUUNDxdo1o3uc3h/ukfbbrCfPaDKq1OU7yzqkqk1NdUqXmg99wGfShbPV5G9YIpnhba8vEHZ9n7iJly0jvemRZpyfSjOtSzYqD3PFnTpMTp44aK9WvTKixa5i7rYq0U/V+Ys6tKys1wrFhSqMvQP3+m49PY8AAAcf6mpqdq7d6/8/tDHmwAQv6ZPn67W1lbOWXFo3759poR495Of/ERPPfWUk12c1OHibfdVq/JfO3ouDgZ71ednHvquUx5u4aIt/5aN+o/eJ/vrt//3o2v11TkXOuWjHwf1ZssRpxzyfttRvfGO27Zr5y49X/snpxyrz007TykzLjY16a9/3OE8b8jyazKVclbnxXlOhL7CRalNjZtWatH15eHeidGkLtuoLfcXKN2dZtIxeD0X21R31yLl3ObrOeScbe3nOWs/oeffW63CBbkqj/rjk6qCJ7dpY2gOxzgKF3XAet1nWq/bVLMf2aMty7qG0IMYLlqiB8geeZd5pU2Vbg9QwkUAQByZOnWqmpqanAv1yZMnm1YAiE9jx44Nh4ucs4DYhLIL+/fopF7QJdiRKw0Kz8TTdPfqq0xteFr33a/r02dHW4Zi4H77+/8xJbtXYYKSk9wehSHjE0fq/LPGaNTIBH122gWaaBZjiZXnvI6lek8ZldApWDxjwqlxESz2T6LSl23UnuZaVdy9Qjnz0sOhlGeGVznL16uirll7HukcLA6uRGX+YJsa6ipUvMyrzPD0Sh6lz8vRivu3qXl7RLBom5yjjb/fpSp7GPcM84o96fIuK1bVy/UdwWK8mehV9jJTVoEKFh//15l6TYUat69XwWz3uTwz8lRc7dOWdYs6Vqie7BngatUAAAAAAAw+ei5G9FyMdc7FMWNGa+pnztLcz0/VmFM6FiMZjj0XbR8dadfvXnpVu1/fr9a2j0xr3+w5G5/Y2jEMPSvjfFWuv8HUXG+9d8SZezGSHQK//f4R7X3zoH5e/Wvr+Qe+uMu4sWOUtfArSkhw8/QJiQn6n7p6p2z76twL9MVZ8fGJVd89FzGY+uy5GE/2Vio3tXuvTQAATjR6LgIYSui5CBw7ei4aH0f0XLPN+8IF+t63vjLg2/JvXq6vZKZ3ChaHs1NGj3K+3+9840tRj0dPt29kX2r24LJDyq4mjhulUSMSTM2VYFXPPm20Zk09U99cFFvyM2vmZ8PBou0UdTy33WsyI/0cU8NJpd2vXS+bsnKUGuoCeiK9VKIU64c+wbktUtnONre9vUW+f97gBouWFTM7FnoBAAAAAOBEOanDRcQfO+g7+7RRzteuRo9K0BdmTtH3b1ikzM9/VqcmnWLu6d24U8coyfMZU3MdPvShKUmXXXyexvZzXxgu2uS7NUEJo6eo0FlkxjI7S+nx8KHlJdkqmhdKOe3FXZLcoHH0BM1fW+e02gv1rFrMoGgAwFDmV3l26MM0+1ao6gPmLgA4Uex52sPnpe63KZnzVXhruXz9WV0TOIkQLiLuhALG0SO7B4y2tE9/SpmZMzV30RVauHCOsi65QFMmTdQZyadq1MjuP9Kfz5hm/aR33tdfm913r3Zv0y9fdr5TxsnEL//e0FyVqcpctl61z6xShlM/0TK04tkGbbt/hXIWZEasSm3PZ1mgVY9sU8MjHSuAAwAwJDX5VLnVlB3lqtneYsqDq2VnuUqfJgkAcOz8L/pUfk+h5qdkaeUzg7TSdHtANWvL1DGhGTD0xPWcixlXrtPB9zp6mNnDcJPGDKyH2Qeth/Xw5u2m1nnOxdvv/6X++ZduTyBbb3MufunSz2rW9PNMrX96m3PxX3/z31p5R6VTttmrTM+f3b9hjqdZ38P1OV90yr3NuXjLPU9p87+95JRtfzN3hqbFMO7zxrwvO0Oh32n5QI9FHK+B6jrn4uyLp+jn937b1LqzR63vf7/7HIwhTQcOa1eg1dQ6JHx8RCOOtivY/pEzYePHiad3CheTE0foz3V/cMrxNNdiCHMuAgCAoWagcy423DNLs27tcim9cKP21BQM3gdo1gW7754C5d9Wo6zKZlVdEw/znwCIBz3OuWj3XDzXzHHep0wV/96nNZckmvrAteysVNEN+Sp7sVi1wTXWHoGhI3LOxbgOFxd95379qekvpjY4IsPFf3rit/rHn3b6yLRHRcsXqfCquabWP72Fiw27XteV333QKQ/UJM8EvVDx9065t3Dxxz/7tX782K+d8rGwj5d93P689y1dUXCfaT12V33181p/6xJT69lfP2jXB4c/NrXODhw6ov96/UO1d5k/szcTE1q1q/4VnXdOsq6/6jKNSIjeQ/JEIVwEAABDzcDCxQaVZszS6h1WcWaxihduUNFdds/CDK1vqNeqY19/0BF4PFcpeW5EkEO4CCBCv8LFJRVqfjLPjHaytLcp0ORT+a0FKnrG9IY+pg9F6lSSkKUip0y4iKFnyCzoMufzaaY0eBKs/0Iuv+SzptS3yMcNhvTzU3RG8jhTG5j+hmFfHOTjNyLKPIjH4kv9PP5nnDpKn7Ju0Z5+4rjR8k4dr9OTRpqWvr3e9LpOH5+o/K/NirtgEQAAYNh7sUbr7WDRknFdttZ8baW5eG9QxXPRBwbW3RGa8yxXlftMoyOgyqu73ue2hYJFW3VeirvNHRGjcFoaVX1HobKmmsdPzVLhHdVq7Do6O3IOtsjH214sMc/d5b5O7TVq3FSo6SlWOWW6Fj3c6GzS8T0lqORFpwlAPBuVKM8065xVWa01oQ9BtlbK12TKjhY1Pl2iQu/0jkUard/7+deXqHpnxMnFOUeEgkVbkbKc7c15bMDnnYhz4dWV8nc5v03JXqnyl9znDzxfppXZU9xt7fPePT4Fuq61Gvn81v6YWAJ9ietw8aa/m6/PX9h5IY5jFbT+C7EDvlsKvtqvgCnycYMhccxo/eOqHI1NHPhCIsF+vpRLZ0x2VrI+Vkc/dnsN9vd5+yP3iln6mvdiU+vbuDEjdE7yKRqfONI6wZlGI3H0CH1pyjhlTBqrMaN6/7c8OzGoj1oP67q//bySrH8DAAAAfJLa5PvVBnOhmqH8eRnS7GytNhfqDfdWydfmlo+rvTVauXC6cteWqy4UDDTVqXxtrqan56tyr2kbDDXFKri+XI32Nx04qIw0Zk4GhrRxmSq40WsqPjWEP5FoU90d2ZqeU6Ty5xs7ArlAo3ybipR7UbZKXvoETnCvlqvw0s7nN//WMqstW4XfXqQM70qVbTXzRdrnvVvnK+M2n/XqgdjF9bDokLodu50huQff7Zh/MVaJiaP1v7/ROXDb/fp+PfObP+oPO1/TR+1HTWtn1309U4suv8jU+sceFh05x6DtH25YaEquv7YcUm3Dbr3R/I4+OhL9ubuyhygvi5hz8d1DHfMOjho5MjwsOuTV1952hmE3H3hXwQEMHw75zjcvd4K4d979QI/9osunJgORIJ31qdP0uQs+rRlTP20aB87+Fj44fFTvt33cbTj0Uau+552P9Oe325xyJHuhmPbXd2vx5Rdo8qcnmNb4w7BoAAAw1PR7WHSbT6uT5qvULs9cr/oGd0G1hvtmadbNbq/FFb86qA2Lk51yiN3LL2utXcpRxRtVypvkNFvs3jopyt9slzvf1/Ow6BbV3JiuRQ9Zl/6ePFVsL1deWqLa9tWoeMkitxdh5FDHyGGS62oVvD1i4KLdgyjT9D2KvC+yXR6teLJBG5Z4rOcIqG2SR/Z31/E9ScV1Qa2Z7ZYBHH8xDYuO9EKREuaWOMXw+WVHqWZlrFaD9Yi8x2pVfm2q7NkY26zzQZZ1PnDOcLdb54l1oXNIL8OiB3zeiTwXWhauV+1jq5Q5scUJPLPWhq7jrdf2U5/KbkhXcqBaKzNyVeakoHmqaq5QTuib7e9xwEktcli07HDReiNgpzDBpUuX2lVgyGj96Gjw7fePBN9453Dwtb923PwH2oK1u98PPvqfB4IP/PYt5/bUf/4l2PTaAfPI+GX/Htq/j9u3bzctAAAA8S0tLc15/2JdYJiW6A7+aoWznX3z/nSPabW8ujGYbdq1rCp40DSH1K4z9yknWPGGaXQ0ByuWRL+vuTLHtCtoXfybVkvEc3V6DZY9j4UekxFc32Aa36gI5pjtrQt502jUFZvtu9wX2T5zfbDeNAOID0lJSc7vZ7dzVuTv+5IK6wzTg4jf8U7nl5DWg8E9DduCVY+sCubN8IS37bzP2mBxqF3FVi3CgM87kedCT7C4zjTbIrdfsDHYcdZrDW67JfSYrudWoG+h7ML+PYrrYdFAX+wh0WeOG6VJE07ROcmjNdEqn5Y4UmNPGakpE8fob9JP17zPjtdF54zVJeeN1fnnnWEeCQAAgE9Wi3xPl5myV3nzIoYHp3mVExrgs6lcVZ3mMBtcbf5G1Ziy79tm3jFzm3Kd29PRnv+x/tXwoMZjsyBD6aYIYJho7xg9GKntlWqV5E1XStIETcmYr9zrS1W5c5DOJf2WpdRw7+4uZqYqxRStq2kljTdF1cr/Sb9MDCuEixg2Ro1I0NhTRih57EidNX6Uzj5ttM62vl7oSdLlaeP0Gc/pZksAAAB84vbVqCI8A5NPhaGFVJzbFBVuNXepRpXPm/nAjoOWA/3bd1vXBQ5iNT7JGRoJYPjwN3ZMF5YyzvyG7yiVNz1XRY/b8y2mKnv5elXU1Kv51QrluFuceD2ejwLSYJ3zcFIiXAQAAABw3Pmfq3Dn7+oH34PV7vxkx2JU9EvoxHEd/XbsudKCwWDUW8ccjQAQyS/f0z5T9ioj3Z0jtu6Z9XIjxwyt2b5LWx5cpbyFGfL0+OmCdQenGQwTI+xJTA8fPmyqAAAAADDYrIvxzaHByP2wY72qno+2dmm1/PtM0eGXf7spduE5d7opdZacnqHQOq/VDbsiVkhtk+/WUE/KXFV2eh7jZX/HCrCWgL/elACcDNr21qn8pvyOntYL8+RNswsB+V8OnR1SNX1yR6LY1ljfwwcrKUqda4q94byDONfW1qYRSUlJGjNmjGkCAAAAgEG2o1pl4YvxjdoTpaegfTtYXWA2Cqhka204+PN4QnGgVFVdo4A9fK89oJrbVqmoH/OE+fc2O1/bDln/S/MqLzS/4z1FKt7q7qDlpTKV3uMU5VleoOzQnGUTPe6q0bbNVara2eIUW3aWa9XN/e2L2Z29WnRoWLizQjWA+LI5XynhqRvcW1JqlgofCA2JzlTxunxzfrDOExeFuiFWq2Jzg+wzhbMK/Vpnffw++NVsn4ra2tzz3nE67/SbvVp06Pu+urJTuAl0lZiYyLBoAAAAAMdXw3MV4WHO2Uu8HRfNXSTPzVYoXtQ9lao54BZTF65Qnrlub7hnkVJGWxe8o1O0aJN1eT/Tbe9mUmp4nrOG22a5wcB9diiQqoIHK8z+6lSSneLcN+HS1e5CL7NXqWJdttyBjpbELOXfmWkq1Vp50QR3+4sK5Z8cagdwcsnUil9VaM0lHT0UMxevtlpdNTfP0gT7nHPuIpXsTVVqKHdsaVXHUjCRgWS5clOs81pSvqrtXtOcdzDEEC4CAAAAOI4a5KsMRYte5cztKVq0TLTuX27K1sV2+TNm8ZVJOSp/vkKrFqe7U5R50pW9fINqX67QyqnOFt1NylP59vXKm2Eu3q3HeFsPOr2JNDlPFY27VLWuQN7Q/WmZyrmlQru2rpd3otvkSlTGD2pUe3eBMp3hj1Lq7AIVV++S775FbgOAk0LqbK8K1lWotrlWGxZ3OZfNXCVfY/fz1LaGPaq6NcPZRM9VyxexGn7m932quCU7/IFL6myp1TlJcd7B0JIQtOzevVtpaWlaunSpNm0KL+EG4ARYtmyZHn30UW3fvl1z5swxrQAAAPFr6tSpampqkt/v1+TJk00rAMSnsWPHyl5/gnMWELtQdmH/HtFzEQAAAAAAAEBMCBcBAAAAAAAAxIRwEQAAAAAAAEBMCBcBAAAAAAAAxIRwEQAAAAAAAEBMCBcBAAAAAAAAxIRwEQAAAAAAAEBMCBcBAAAAAAAAxIRwEQAAAAAAAEBMCBcBAAAAAAAAxIRwEQAAAAAAAEBMCBcBAAAAAAAAxIRwEQAAAAAAAEBMRgQCAR04cMBUAQAAAAAAAKBv+/fv1wiPx6OJEyeaJgAAAAAAAADo25lnnsmwaAAAAAAAAACxIVwEAAAAAAAAEBPCRQAAAAAAAAAxIVwEAAAAAAAAEBPCRQAAAAAAAAAxIVwEAAAAAAAAEBPCRQAAAAAAAAAxIVwEAAAAAAAAEBPCRQAAAAAAAAAxIVwEAAAAAAAAEBPCRQAAAAAAAAAxIVwEAAAAAAAAEBPCRQAAAAAAAAAxIVwEAAAAAAAAEBPCRQAAAAAAAAAxGdHa2qrDhw+bKgAAAAAAAAD0ra2tTSOSkpI0ZswY0wQAAAAAAAAAfUtMTGRYNAAAAAAAAIDYEC4CAAAAAAAAiAnhIgAAAAAAAICYEC4CAAAAAAAAiAnhIgAAAAAAAICYEC4CAAAAAAAAiAnhIgAAAAAAAICYEC4CAAAAAAAAiAnhIgAAAAAAAICYEC4CAAAAAAAAiAnhIgAAAAAAAICYEC4CAAAAAAAAiAnhIgAAAAAAAICYEC4CAAAAAAAAiAnhIgAAAAAAAICYJBw5ciS4e/duTZs2TUuXLjXNAE6kRx99VFdddZXGjRtnWgAAAOLXCy+8oKamJq4nAAwJTzzxhFpbWzlnAcfIzi7sv/+dwkUAAAAAAAAA6A8nXAxa7HDRNnLkSOdrrNra2pSYmGhqsdu/f7/OPPNMU4vNYLyWo0ePOl85Lp1xXKIbrONi/z6OGTPGKU+aNMn5Ggt+XqLjuETHcYmO4xIdxyU6jkt0HJfohttx4f1LdPy8RMdxiY7jEt3xOC779u1zvg70fMXPS3Qcl+hOnuMi/X9DL0h/34GMEQAAAABJRU5ErkJggg==;" parent="8f3zKisQWfTtFi9QEEFh-31" vertex="1">
          <mxGeometry y="6" width="473" height="52.27" as="geometry" />
        </mxCell>
        <mxCell id="8f3zKisQWfTtFi9QEEFh-33" value="[Klantnaam]" style="text;html=1;align=center;verticalAlign=middle;resizable=0;points=[];autosize=1;strokeColor=none;fillColor=none;fontSize=10;" parent="8f3zKisQWfTtFi9QEEFh-31" vertex="1">
          <mxGeometry x="144" width="80" height="30" as="geometry" />
        </mxCell>
        <mxCell id="8f3zKisQWfTtFi9QEEFh-34" value="[Omschrijving van het Project]" style="text;html=1;align=center;verticalAlign=middle;resizable=0;points=[];autosize=1;strokeColor=none;fillColor=none;fontSize=10;" parent="8f3zKisQWfTtFi9QEEFh-31" vertex="1">
          <mxGeometry x="104" y="28.269999999999982" width="160" height="30" as="geometry" />
        </mxCell>
        <mxCell id="8f3zKisQWfTtFi9QEEFh-35" value="&lt;font style=&quot;font-size: 10px;&quot;&gt;[Projectnaam/nummer]&lt;/font&gt;" style="text;html=1;align=center;verticalAlign=middle;resizable=0;points=[];autosize=1;strokeColor=none;fillColor=none;fontSize=10;" parent="8f3zKisQWfTtFi9QEEFh-31" vertex="1">
          <mxGeometry x="304" y="6" width="120" height="30" as="geometry" />
        </mxCell>
        <mxCell id="8f3zKisQWfTtFi9QEEFh-36" value="[Auteurnaam]" style="text;html=1;align=center;verticalAlign=middle;resizable=0;points=[];autosize=1;strokeColor=none;fillColor=none;fontSize=10;" parent="8f3zKisQWfTtFi9QEEFh-31" vertex="1">
          <mxGeometry x="304" y="30" width="80" height="30" as="geometry" />
        </mxCell>
        <mxCell id="8f3zKisQWfTtFi9QEEFh-37" value="[D-M-Y]" style="text;html=1;align=center;verticalAlign=middle;resizable=0;points=[];autosize=1;strokeColor=none;fillColor=none;fontSize=10;" parent="8f3zKisQWfTtFi9QEEFh-31" vertex="1">
          <mxGeometry x="402" y="31" width="60" height="30" as="geometry" />
        </mxCell>
        <mxCell id="8f3zKisQWfTtFi9QEEFh-38" value="&lt;font style=&quot;font-size: 10px;&quot;&gt;#&lt;/font&gt;" style="text;html=1;align=center;verticalAlign=middle;resizable=0;points=[];autosize=1;strokeColor=none;fillColor=none;" parent="8f3zKisQWfTtFi9QEEFh-31" vertex="1">
          <mxGeometry x="436" y="7" width="30" height="30" as="geometry" />
        </mxCell>
        <mxCell id="Aihu2LdOpN7aua6iw54k-8" style="edgeStyle=orthogonalEdgeStyle;rounded=0;orthogonalLoop=1;jettySize=auto;html=1;exitX=0.5;exitY=0;exitDx=0;exitDy=0;entryX=0.5;entryY=1;entryDx=0;entryDy=0;endArrow=none;endFill=0;" edge="1" parent="1" source="Aihu2LdOpN7aua6iw54k-1" target="Aihu2LdOpN7aua6iw54k-4">
          <mxGeometry relative="1" as="geometry" />
        </mxCell>
        <mxCell id="Aihu2LdOpN7aua6iw54k-9" style="edgeStyle=orthogonalEdgeStyle;shape=connector;rounded=0;orthogonalLoop=1;jettySize=auto;html=1;exitX=0.5;exitY=1;exitDx=0;exitDy=0;entryX=0.5;entryY=0;entryDx=0;entryDy=0;strokeColor=default;align=center;verticalAlign=middle;fontFamily=Helvetica;fontSize=11;fontColor=default;labelBackgroundColor=default;endArrow=none;endFill=0;" edge="1" parent="1" source="Aihu2LdOpN7aua6iw54k-1" target="Aihu2LdOpN7aua6iw54k-2">
          <mxGeometry relative="1" as="geometry" />
        </mxCell>
        <mxCell id="Aihu2LdOpN7aua6iw54k-1" value="" style="shape=image;verticalLabelPosition=bottom;labelBackgroundColor=default;verticalAlign=top;aspect=fixed;imageAspect=0;image=data:image/png,iVBORw0KGgoAAAANSUhEUgAAAMgAAADICAYAAACtWK6eAAAYcklEQVR4Ae1dvYstSR2dP8E/YBEFEZ7iun6gLOri7njv7Zn3hBc+2ORhuJHCJiaLGIhgsGAmKIug0QYv2VQMxUAmMjASMTAcTDYdPUP/Zuqe+dVHf1X13D4DTXX3vbe76tQ59fuo6p6zM/0JASEgBISAEBACQkAICAEhIASEgBAQAkJACAgBISAEhIAQEAJCQAgIASEgBISAEBACQkAICAEhIASEgBAQAkJACAgBISAEhIAQEAJCQAgIASEgBISAEBACQkAICAEhIASEgBAQAkJACAgBISAEhIAQEAJCQAgIASEgBISAEBACQkAIOAi8fPnyM7vd7o39fv98t9u9bLGdn5+/d3Fx8esW9z7xe/5yv9+/36qNz549+z42h3brPgVRPH369Mf7/f5qv99f7/f7G23CYEkOHA6HV+DcqpUBYVxeXv5MopAYlhRD5trXsGirEwrEARVnKi9LImtaiwNX4OQqhIIYo+u6f8bE8Xz3g5sX77x986O337p5763vVN0uiZBWD9RF2zgMgGHY14f9vmqfGoe4HmGd+n1YkzeaigQqjYkDDfnkjS/eXH3pszf/ePJak+1d6swPv/21JvVo1f4l7vvx158cCaTb7Zpiivq8/703j+pkYgE3m1oSz62CxfjNt77aFDQjhgQy/8C0NoFYX4NzJoyw3O12f25iRRAMhRXBPtyWv3zl86sQB4CTQLYjEPQ3vBVwkHlZPXD3XCtYjj+9/oXViEMCmV8cwHStFgR1w4YBmgWCzGpVK4KJP67EWtwqAwqlLMj8Ilm7QNDvv//mlx+IpKoV4dgDQVJIzLXsSyDbFAj4hyRROIh3XfdRNSvCmSuMKmsRRVgPCWS7AnGsSB0368WLF58LlYn9NQXmEsj8oggxfQwuFuqLgJ15WiXl2y8+PLp5COCa9mVB5hfLYxEIeMgCqTJxiBWU4Y2RvVqTKMK6SCDbFgi4GXK1yupfCWR+0oWiXvv+Y7IgEkhmCYssyPxilkAyuTBZkPlJt3arEdZPApFAqsRUyPyBbNiQksREK7ZfvPmN2w0LK7HhHD7H1nrxJ4QigUggswoE6UYQ28iPtULsG4eBZOk+JsI++M63b0WE64ej/JL7EogEMolsJgiM/nOJoVQ0WNGA+y4pGAlEAhklEJAS7tEc1qFUEKnv4YEi1GfuSVwJRAIpFgishVmKFFkTn133y3ausL4NG9YMHQ6HD/vyFZ5nwMbLexLXPMr943twx1DPOVwvCUQCyRJphLXA210ggg/x9g3M6I5d9tAv9XmO60BEEM8QscCqQNhjxSKBSCBR8uB5lwFu1BXe8jJFDJmuOPoYjyBAgKVvlRnrfkkgR7A/PNjiPAhG3BJhYDQ3UTxErt4Z9FFvYaIv0zCrg3YNsSYSSKYftySQQmHg7RmIE9q+QSPSb7AscMVMEF6JgB7zLCVCkUAiQNvprQgE7pT3fHNAsGtYC8QEhs2aS9Szd8EeBPHWJgTzuayXBJLp5VMXSIHVuIb7MjbIzsC7+McQSs6ipKyJBJLpolMWCEZPflTTRleUcKUei8XIdOMZXMKUUGKxiQSSQfZUBYLUbeJtfXgR9/MMNI/y4/4FHO5LxuFissslgWS6+RQFgnVSkRnwRdwpuGdrctFQl5g1AS7h0hUJZEMCsXgjdKNsv5+5nt1qIH6xeyBozsBd9WPvZYBWVwgDWS4JJNMlp2JBIA6shjUChCVijaVGeGcibz1vIj87O0O7+//t8gAbWFoJZAMCSYkDqdulxIEAPxRisN/+TeTU7xgkgvrdiYWTGK1fXp2au2G3GYM7NXP+w1OwIBHLgUB1dpcq7IGEQG4JWKUDwwpl9nPzJhCQBEIgPnaBtBIHYERq1RuVw3NVX5FJfesdwqKG9eN9CYRQe8wCYZPbd/bilsMgLBEI6oRA3n6zhjIVvEsg1EOPWSA8+vUB86JuVQgfY4d5htg/f8HIHf629X6YfQtxlECoZ7iTMSqnAqWWn/Frf8KOrS0OwMgks5d+Y9aa6nZ7vLY0sDdXgn/BhqRHy36O3Zs9BnCX6Dz/4akIpIUbwwQLl3Pgib/HIJLD4fBHricyWzGStjwvgQx8cZx1bKuRmf9thE2+GYkei0i6rvu3YWkl5kisHWspJZBxAmk2McfPlfM6JxALK2mNdGHZStSeD9JPJj5Yv7W2/zAmgSQEAvJd7nZMtk9brcblDBY6LzbSYu1TKA7bX5NI2NVGHbHYM9amFuclkIRAMN+xI4F0XfcTb0SscY7nE5DBSpEmJpIWsVMMHwjWxGvlXG9PSWFT+pkEEhEIrxdC511cXPwh1tE1zvPSjTBAj3W41w60ZU2TibxuC6T0XMdYG5c8L4E4AkHK0XlU9nqp9VUl4up99iO3KVxCniIJgl8bnamsNn+TaqO3fMbS16l21fhMAnEE4mWCWk+6DXWvmDxem3pLsooXRXD6GnVbQ8DeTCDs2z/d7W7WsnX7/dGIi8xRS+uB0ZezV2P89NgaslZJh9CqxLJarTlBFvemykTh+fn5M77xmo+rgBKyhfb7R1rvRDvFR48sS7miWzY5TK3XWgs/qnDhMQmk67q/NWFLcFOeHJzqnzvx1Q3uEdyy2e7/s4T/XYsYvHp0XfdicXC8/LdXmTWc67ruu4sDkriBhxXPnnO8kTtGEsJ7ucQaMlsXFxcfrKHfY3WoYkG8Tsfsb+uNA7LdbvdJgrtVPuLULog9x8I+pFE9EmAyskrDEjfheAsWrxU3mBNNBIJK5Ea9pT+PzBc0TYNy7AFCgyhzYeG1GeRMcLfKR97kYat5EQmkT/M6wWvTwLXP6uBdWncj/RIrXr3MVut4xJvzabWQUQJ58tqty8JArG3eA0IpnRgcamG8oH3pZ+tzpojnRVDHoe2a4/vMi026WI6rsYZZ86OVrlMzVymyROKRpm9J4YWZGCBauFkSyJPXHjyy2trFYB8cnbT0rLIzSNy0jkc4WG/hZm1eIMgIMQgt3QsvMC9ZlJiyEKWfOXHYTUtXkweKJa1oDCPmxuZcLG/kbLX0wltugQ6aI60bIwCf9+KRVnh4g0VNLIDN5gXiLOJrlr3iwBR+NwTMJC45hkuGrBeszxDf3YtHMBeTC6qX+NzLZi2VqIhhunmB8GswW7kU3mg5xbUKLQE6eUgM46V+W7mdPFE6ZpFmjPwl5zctEJjrcJ6h368+Oei5VlNnzJ12FaeJgYuzFOV6CSuRuyYv8wdhS4g913c2LRDvkdQW/jYvRpziWhkxHILfDgalLooXm7Wwrp5ltTbWKDctECzbCEfaFmlNb4n3FNfKSINrhG0L90tFErpp9vvaA4gXhwyJqQyPseWmBcKPotae/wDZ+H99THWtjAgsfiM4SnR6SUziBey1MYILxhiVCtywmFJuWiCc90fePecTz/n5Eq6VkQECCEXB++j4kpSpZ4lqWxEO1GtOGG5aII6fXi1A53fsgsBzuFYmkEgC4kg0JeubvOsgHT3nQJG7Fk8YIstm7Vy6lECC1bJVZknv/0XZ0VqruVyrkDDOAHAkEIiyZIVwayvCmayaM+qbFgi7HbUeFuIREfUYOyEYCoL3PReS1zfh3jmXpbUV4URGieVjLMYeb1YgXqfX8K1hpViYc7pWIRF45EfM0ycGHliSXNDuTB5e18AL7henemEZw3Yuub9ZgXgZmqU7HClLDjjRARDrEp3sZLJuJ/uYcBAs6pGqgzeg1HqFKdc3V9dUO4Z+tlmBeFmeXLA49XMvMM+5N0M7NPy+M9l3NxvurfvK+faeFZmKScnv2epKIM7bDsOOn2PfEcgdeUo6beh3vOUkJQHylLZ6oz7qYXXnd+LCkqTmGDyrW+NNKN7DU1NwGfJbWZD7LNaiAuFMTI6MQzox9l1PIGEiwpulzvn3nBmrkfKVQDL+b4wAU857o6GNrHOXICJnj3LuDLcNZE+N7vx9O+aEAKeyOUOE76fcvlhcMzdm4fXkYjUQiDe6hu5H2EFT9znIHGo9IAwz9RjBIW4TQK6035lQWCBoG4sXvwE+3rU93JZ2s1ggOSvn1XvsuRL8pvLjwe+5wajE2AaM/Z3X0UtlsThzNdR68HzGEII4Cw4frBbwBJyyIrXdLLZymgepEKRDWDaqWhn65w9UPfKER76hrhITEvUtfXCIBRIb7TlgTw1aEI9h1peLxm8SSAMLAoHUMJ+cTh2aufJiJZASdS9xtfiJyZhAvAlExBuehfasLwaCkWNI9mecHh+KodeG0nM1OPIAgDW4WACIR9clJr7Yv4+RLtZhzlzG3eidcoPseiyQVBtZzCkrwlZtyZXQXC8tVqzkYjF55n5izktPloz6Rm6UHH+Erk2KwHYNbmNKIOzK4F6x+vLLLpZ8ToQfCygZGKz9U8tNWxBvrdIDczfhBLsGQ4NLuDLcQaFAsJ+zSGwlYy4WmunNi8TI6Fi2xeIQtsJLLOyMCYnx97KAEyji/3QtLtbSncwj39BFiTxK9+I4eqF1zt1ggeRiBXZnYlbKi42WSJN7sVHMqsVIPuX8pgWCbBKPyHN28pSRz7MeEBy7QTECGymGCsTLuqEudj0rvUB9iSwgD6boL6tDjXLTAlmyk6eOfJ71AFk8NyjlZnEwnZvr8a4fS0szeXLWyfcn0menuqlTRcRt3JSLBfCYQKkgNt2Vx596AintLM96YLLR7sBuUMzN8tygnEBwD57YjMUhbJ1S8Y3VfWg51U0txTz2vc0LhAP1kIhDOzP8PmewIMRYJ/D5mPWw65e6Wc6K5Ru7RqrkJx5jM/9LC6S3ZkePJtcM0NEvmxeIE6jfzBGHsO8MMrEQvGOM+twpGEVDQntukBe4wvUKYyzEROF1YvsskNjE3JAUcuxeqfNePOS108NxrnPcF5tzsSJxyMtUx5V8xp0bIxl3JFs0vBPKC345AeC5QTgXCgTLSUrqzhYqZv1YIHO7WCzU0kGGMZ1yvHmBADx2FXjELiEVf4cFUtK5EevhvquLyeO5QTzJiN9wPb1jrjtI4pGM4zf8zrve2HM8CMD19Oqx5DkJ5Mlrt5NtNNJOnvRiFytGsrBzPesRC6o9EsMa2vW8QL+UwBw/xVKrSwrEq0Msm2ZtXqKUQPp/4kkCuZnqLnAH5wQCQjPhUktfvDgkJJAXW8XExiM8izvmYjmYzfY/1jlTV2KBJZAF12jxCwlKA1omlx17BE4FmB6hcwEhp2NDF4Tdq9L4A/XnGMQjp5chKxWgYRQre+yOsldh25YQQuyasiC96DyCesFxrFO980NeuuykdrNuHj/nblZqqDXiuvPknJdgGJsA4Ht5x9wuWKrU4BIj9xznVyMQuAetNwYDZt7rwNJzqRGeO49H/JJEgWelIA5P7ENGdyaoNxHJ9Z2KVYjpfr//V+i+wYK14gZzImfVw3aM3mcfNwRjbftd170+tqFMNM9VMaFw/FEaA7GVwsiO+4Q4Dp38zM1eexaqtL45LLuu+0lY97XtVxFI13Uv1tbwWH0Oh8Nfc50a+5wDddwj5iqMHak4mOXr9O0alH7l9CoskgkZ5VQLFcML5y8uLv4T64s1nAd3U/Wf5bPz8/Nna2hsaR2mxCJMttiSdyZ26UjFATW3aaj1KBE1u1cl7mAJcTj24bas5PjdkrZM+o7nYh3+P7quZeOOmJLR4gk9CCEcjW3fcYuKZ/M51gnqf10qNOtQJim7hYgFguvf7s/hXnmZK/Ch2+2abtzW0rkkw3NUyQKJkcbIU7t0JuxGz4t4gbQX9LJAhqwq7u9x9CBVH5sMcq3QmSw2tni8vAT3wf1HESH4EcdrICa7drV5gPtxbCiB9BOHDjCjicBxAjqfYxEW5Ri3Be4RhIVyDGl5dp5J6sUeIHbA81G7yLBxsgFuXAtB8D0dHgwedAaDsnYLApA8Muz3+48HNzbyrDe7LrzyFoQZc68pv2HrEdYRgmaywPUcI0SuI2fN4FFgIpLJ2uKY2ywLEszWczCKEbXrukvu4JJj9u1xrXACDqlTnAu3IXMXJXVIfcezHjZ7jbqxC4h6zhF7eLiwW9dCGHZPCSQQhIFiJUbNkLD9/qdjR01+eyGuF5KBM1lzTr6lxIHP2HqgLhAGNm+gwPdz18x93nsSR0tKQEjc0/qgdSmBJASCznlx/vYDkYwlB4TFvjZEYs9ycBwyVwBcSNSjdpr14DVqqO8crlWPxVFiAaJcQ2AeilICyQjk3XceCgQkGRuccvyFa2GDu4WR046tHBOs5wQRfg6i8lwNSAHr6VkOiBZtCK8xZn+32/3d2mhlaE1Dkrbcl0BGCgSdOtYH9/x9XA9+fsTXn20ZOZOZA2TUA1bDIQbEi6cbi+dn+F52/PTp05+bKKy0AaKlGLx7OzgoixUCFbMg1rFjCROzJHbdsJwyUWmk9EovQIabw7FQXxfECpPJ4d0TE4JryVqFfY99CWSCBTES1xDJ2LjHEwbO9UtKjgJka49TLiYO3Auz5UzMtRxLIAMFEhldR7tbPVGPglWHoLexSekz5TFR2PmB4rjC9+23Y0tvptzaKYEQquxegHRrGTG4HuxiIbvjZXbQ2WMtCeDhNVtGHi7HJgesC0B2Dsr5HnaMOo1Nadv9UHorCeweKCWQEK2zs7PHLhCIyEnJ3o7yU0QC8npBc0gm7MOPJ0iLDr0lHXzt/hgWbXK80WfIPorc4y5jJ4FQ952CQFIiGUtggwnkTI3yY4N2ngx0iHuNus9hNXCNmNg5UyeBWM/35akIBCJxniW3eOHVVKIBJ889GTs3EhMIBDeXMNDFMXHAlcakKK9zk0BOWCApkfSz5pNdFcAHAkMsU+ICGpiuIbQ5AvCwe+Fi9u2+c6FgqSAOmyWXQELEnH3qqFvwQLQ1bl6Q7tXTecvHHUHmyj45UI46BVFMtW5841T8hFRpOM8hgTB6dHyKAoFo0PGxNDAWKs49WhOsTQ4hNFg3z2rAciDe4GdfJJBMV52qQCCS2OpXC4jXZk0yXZX8OGU10F6s5fJW5kogSVhPI83ruVnhuZTLBfJAKDWf98h0yaCP+yD8w5jVsGA8xCPcl0AycJ+yBQmJgNHTeYb7LjZ5bELJCcOsBrtUISbYl0AkkKOEQ86a9EJ5tVaLggENFi9mMVB/xBogPovBO5ZAJJAHREEWJ7ZEBQSzrU+9Tl5SnumC7MewFv36qeQ6MXOnvFjDE4csSBb6bcQgMXKUCsWsCjJENbJfEAQsRSCK5EpfCAPuY86d8nCQBcmIZCsxiEcOO4cRNzYLb9aES1gXEBj4QTQgdQZq92P8Dr/HkpZSQVhdIAzUO5zXsDaVlhKI2y33JyWQ40lRxCjOcwd3bpeRM1ZiqQiWkUBAmG0H6REzYB/n+yUmV/36rqRliN0D1gLEHuJKxQQjgdxrwd2TQI4FYkSCUCLPgReLJUbwMefnsBbWtrCUQFxZ3J+UQHyBMIkQ1IOkY8g95je4FwRqLtQc1iJsk+1LIPdacPckkLxAjEwoEQiDVCAuXJ0p7pgJB2JAahbPteCtjlNiirCuJfsSiCuL+5MSyDCBxEgH4YDYIBxIDgFhg+UB8bHBbcOG7+DN7Pg+tqWsQ6yu4XkJ5F4L7p4EMo9AQtI9pn0JxJXF/UkJRAIxVw+lHpi618btngQigUggJIrwUAKRQCSQUBG0379d4yh9uVYfuvSJwrXWf431UgxCguBDLHUIRxDst8yqpEgkgcxv7R6LQMBJ5mm1Fde8dBppyhRRW30mgWxXICxkiKWaQPh1NpgAayWC1H0lkO0KhJf9YK0be0OLHfevhzkyYVBsiqwtPpNAtikQz3pgEehiguALIw7pV5feiQTLH8Y8X7CkcCSQ7QkEsYezBm70fzlm7hcfe1Zkba6WBLItgUAc3pOfVa1HqCDvH1tCvWtxtySQ7QgEa9UiC0Gvxj6cFnJ91H6f8nUf4sFiO1R6SRcqd20J5PQFAo6Ba5zS7Y/xb+cm/3+UUeKwH/WPf7oiQSVhUeB6IatQe/shPY+BEQZ10TYeA367O/q4BZ6oR8RimFjAyVnerWxcH132s+vJN2hEFG6NURm8HUVY3b8pZiQWV9XmPIaopn/Pq8gusrfiwGz/I2UI7wd9F3FJ8LaNVkDpvtsS6RU4t0qrkVJPH8Q/R0oY1qXVtt/vf3t5efnTVvc/xfseDoffXVxc/KpV28AprCxvHoSnBKDPhIAQEAJCQAgIASEgBISAEBACQkAICAEhIASEgBAQAkJACAgBISAEhIAQEAJCQAgIASEgBISAEBACQkAICAEhIASEgBAQAkJACAgBISAEhIAQEAJCQAgIASEgBISAEBACQkAICAEhIASEgBAQAkJACAgBISAEhIAQEAJCQAgIASHQFIH/AZCaZqjo0qzSAAAAAElFTkSuQmCC;clipPath=inset(12.5% 6% 13% 5.5%);" vertex="1" parent="1">
          <mxGeometry x="170" y="730" width="93.09" height="78.36" as="geometry" />
        </mxCell>
        <mxCell id="Aihu2LdOpN7aua6iw54k-10" style="edgeStyle=orthogonalEdgeStyle;shape=connector;rounded=0;orthogonalLoop=1;jettySize=auto;html=1;exitX=1;exitY=0.5;exitDx=0;exitDy=0;entryX=0;entryY=0.5;entryDx=0;entryDy=0;strokeColor=default;align=center;verticalAlign=middle;fontFamily=Helvetica;fontSize=11;fontColor=default;labelBackgroundColor=default;endArrow=none;endFill=0;" edge="1" parent="1" source="Aihu2LdOpN7aua6iw54k-2" target="Aihu2LdOpN7aua6iw54k-3">
          <mxGeometry relative="1" as="geometry" />
        </mxCell>
        <mxCell id="Aihu2LdOpN7aua6iw54k-2" value="SW-CORE-AS" style="shape=image;verticalLabelPosition=bottom;labelBackgroundColor=default;verticalAlign=top;aspect=fixed;imageAspect=0;image=data:image/png,iVBORw0KGgoAAAANSUhEUgAAAJ4AAACgCAYAAAD99dWmAAAAAXNSR0IArs4c6QAAAARnQU1BAACxjwv8YQUAAAAJcEhZcwAAFxEAABcRAcom8z8AACW5SURBVHhe7Z0JmBxlnf+DBx6ruwvIEZipqp5EUUQQcT2QY5WVVfQBPCKigWSmq7q7unuSDDwIJCTVVd2TA4jhksMHVJ79+1fU/67rsYIi/nFVkDtci1yJJMiZZKbP6ZlM1/6+b701qa6u7ul7hpn6Ps/v6Znut6reqvdTv9/vrXrrrQXtUDi84t2KEvnSQEiNKIp6SSgUv1IORX3rqEWuDIbVbwyEYhH6O+Zpssd3ZNRGUa/vpwzLOZZVwmo0FFK/GIlEjuNNPjMKhUJv7u+PH0s7MCzL0T8qoeg2WYnm6NOMRFeYK1ZeYA6u8K2zdr4ZUQdNJRQzQ+HOG2/fnbKs3kdQXk4MfHzp0qV/x5HovAYU5ZOhUPQHVJF8OBI3o7GVpkqw4e9wOM4qCQB967zhWIcdcHTS0L5oZ7Q3a+tIvECe8C7yhEsIwn/geLRfwaB6DHm4b8uKOmFvHBXyOiC+zW1zggivG1TU2/oV9V84Ku2THI6eo4TU52LxVWyDXpWBoUKoiG9zx8Kwado8GltFf8d2K+HYJYODg2/h2DQvTdPeRDR/g7xcHl7Oe8NxE0DGB4csD6ioe+j7XRSKd/v2+ja0I7XnKNoZ7VvL8bB0iyBVwtHvnxs79yCOUOMyTXO/YDC6MaJa+Zt7Q/tIV/cqSuzOoBK9ekBWBxVl8DTKAU8NBsOfnu9GjfYvXt83Ys2uo9Zy7t+qlUU7hsPh06ldI7Icu4La+VdySB2Nxa1Uy80EvoODImf188jSyCEcpcZElYnaodO5cnwHuumMGCe6f0gVPD0YDB7IF/M1h7VkSfQdciRykhKOXE0s7LY7lW4+4JAIvh9/PhR6O1+0PhF0pyFmY8XuleJyCf19dzAc+/SyZcveyhfxNb+0X39/+Fhi5NZwOF5yOyfAyJyTHFmPstYi02jZsuhh5M0ejFI891qZokT+TVGUhby4r3msJUuW7K8o0Qsoz69wUqxjEomnZTn8BV68tkBphafbB90tAwMD7+RFffliCobUsykavuLmBiGXnNj9kcg0+R65zWMJvD0R1RG3eXiVZfX7oUZjtq95I9xiI/j2unM+dE6JnfN5MW/JociVKIhczl7QojiyVZblHl7Mly9PBYOR68FLKFwOHn0+SU7rXbxYuaLR6GFKSP2LdYnEWgj0khVlOfp1XsyXr6oiuARyUn/hsDGDE5MVXHKLfIkXKxfRKlNCOO50lbhoOKBEftWWq9G+5oWoszHkGTUV9d95kTLtRwtcHx88f6owFiSbkMPxIC/jy9e0os7nkdSh2ObsaOBv+u6p5cvVXl7MEnm0vyfwbndeQrEWVJ+T5UE/t3NpVBNOSGvi6t0b+zo3KuP1q/2CSvQm3F6zWcKlFQq3aep//CsvY4m6u0cSeM/yi8NT4BGlP+NFfHHl9J5/yurik+blfWbOCHz71QuP9C8vuRQMRuO8f8BYQvQET8FQ5GJexFJ/KHoiFSg6C7K/lehmXsQXKWcsOr6QFLeamwJmcThg7l0fMDN64MbSUM/beBFfJFmO/KssqyNs0AB3ZLH4EO5kXM6LWAoGQ58BkXZCyPM7KhhdzYvMe2UN8bi8QdBtDJh5QyJvJ5njqYA5CfgM8Qbf8+2TLMvvJ47K8jzr/m3kFl7EEgh1g0cxuURd4K/yIvNaWW3Rhyi8Pmpu7JuCzjYbvqwhXf+ydtQ7+CLzWpS6HU39g+3NgjdJ4J3Bi8xb7SHo8rr4MMKrGzoYAUfwSSzsZnXpuhe0hfP+7k7L4IVC6lm8yLwUQXVsISU9yKBLVkLntPFhC75MQrq+dPkx3XsIZhbKB68FAboMPB1yummgs22cdzjg+UoXHDpv4fPBa1JZTfwgwUaerjKnq2UIu0UKuxMEIHVErja/K87L8Yo+eE0oowWOGUtK97k9HX3HvJkTNFiROhfu75HzAT7qCV8zH3M+H7wGldH6js7pPKdzgmRBVKSe7VP0OWn/ViAY6btXKLQ+g56te5kJ+i5tSNeY8ww+H7wGhJwur0sPsPDq8HR2jzWjC+vTmhCi30oADr9ZnQnhnkJS+FQhKd7v9pI2fATrVc9vnj8XmX3w6lTG6PkAwXSvGxzka5MbCK6keKOpLXhDzhDPAkw2eOzicUJ48EdLFryRX2B+FODay7NLLdTbnSAb1cWrt2nzI+fzwatD5MWOyiQky1txYCzoAmaJoCPYbippB/49yhKA51SApwsP2YMFRrTeD5PXfByh2l4PDMvAKCxfWZoHns8Hbxohp6P8jDoS5b1XhFdAldOFm1/TFjPooGrg7dHEf+RFFuT0wD9R2H3UDTKWY71dXfpmafPH5jR8Png1lNbE9+aT4j3OnM6+HGJ7ulc3HVR2/7Ue8CDqoHyUwu7jTvissGvBR+veZFJ45sXnnHzwqsjUjto/YwjfMS/rm4IIhvBqIqej33ZfdEDFWLt6wYNGCb6sLvwPvKm9fhiHOkNh97O86JyTD14V5ZOH9+Z08SXn9Tfb06V14bsEi+cAz0bAg3Ja4CMFXXzM6fmwLP7PGYEkLzbn5INXRebFwgEU+v5kXtHHvBwAgqdL6+L3zGsPrjrCpFHwoJwmfqyQFJ6Ad2XbQa83KRUoD/wMLzLn5INXQ5SHnUkebzvyu4lhKY+crpqns9UMeBCGygP0YlJ6jba1cxQ5nnbKm/jPc04+eNNoNwYCGMLSnNF7Rj1j6ZoFD8pq4mEZXfzkCIVf/tWclQ9em9UKePNJPnhtlg9effLBa7N88OqTD16b5YNXn3zw2iwfvPo0Z8Ab13pPzBrS5kJKvDJvSBdmE5LSsiWtz7QufIJvZlq1Cp6pHfyOjB5YUhx21aVJozqEcoaYpPpswQXpzHDgUL6pGdWcAS+7TroQF2BxwRdP8LPPVm2zZQVDfIUar679bAU8DAalk2cL7lqYmxd516kZY8dlkZnTpb0Y3sU3N6OaM+DlNGkFGnosZTV4uwy3sXij/ZxvqqZaAQ+jVgi8PJZx16NVw7O9tA+7x4aFo/jmZlQ+eHUYPGjWEH/PN1VTrYBHIfbTuEtS6MA++OB1SPWAB+8FKDDsCJ/1GAYJALyMLn6Pb6qmWgEvbYjvo+3sxCBRdz1qGfZnuhPOB69Dmg48QJfVxXH6exd9psmDZeqx8ZSUpvJ3YRQy31RNtZTjmQv2ow7BuQVDer6Ykjzr42W0nT1Ux5GsLpXs/XWbD16HNB14GGEylpReziVEtbix9/25lPgx2HgNy68XP04N9pFnPcbdVVMr4NkaSS5eNJ4UTnDWpVpdCaaPFlPChzK6dDNtc6+9Xbf54HVI9YRahE1K3u8eNfrezRdru9oBXqMa1cTl48PSq9iue59t88HrkLzAwwPW8HT2/6yHao11ezBrHHEsX7St6jZ4aU0KjSXFLJ50o5PK2k/atjV8ft+x8MHrkNzgoeEp58lS7lN0NgIaBck7lbs3o/UczRdvm7oJXtqQQnmCzhoqvw8yvr+7KPxO5Xw+eB2SGzxchKXE+8+j64QLc7r4mrNxmOfD0PKEdH+9nYZ61S3w0oYgjw+LoyVa/9R+sZOKPHpC+k0uEYjR/k/lfD54HZIXePT5wIjWc2BaE8+iBhiphK8PjxI+MGIsOp6vpmV1AzxAN5YS09gfO7xie8yTG9LvSylhYV4PnIRUwwevw6oC3kM5rfdw/D6iiV+j/8vCEvMQgC8pbaOwXD7beJPqJHjmjxa8MZPAfVdxDOudyunI4OkA3Z6kEEBZSjE+i2Phg9dhVQMvn1w09d6ETFI6ezzl5fnYpZYdGS3Q8jvzOwXeY3jcMiENw4thnWX1J+iyCelP5N0X8+I+eN1SPeBBI0bga8WUNOpsPLs8NeILBa3vU7xoU+oEeL/TFryJOgqp8WFpb2VHiT33+ydav8SLM/ngdUn1ggfh7gBBlnN6PmsZjESRduKeKS/asNoNnqYteENmnZgcSwUm99J6nZdMWHhNSX8cSfYu4sWn5IPXJTUCHkRhdel4UmIJOsrbxsPuXwvD4id50YbUTvDweGNOEw1aV8l9XQ7QYXqNUe3w9/DiZfLB65IaBQ8CfBR207j4imVsw4PblKg/n9HEf+ZF6xYehcT6nOBldeHRkYuFA3iRuvQ7QKeLCQqvE17XIbOGeO9IcnGFp7Plg9clNQMeNJqQllFjloVdq8OBoVAUdtcKp/KidSmblE6jdRQx+NIe2ZJNiL9vdLrZDEFH+7LXmrTRqhelAXZ4pY7EoqmOhJd88LqkZsGDqGHPI8/HbjthWdvMDbhEEdieWVt/2EV4zGrixZSPPUd12ZXXxfvyeu9J/OdpheUBHQEz6Zy3hdUHHQkjcM+rhnQkL15VPnhtVK1pu1oBD8obvecVh6WMs7fLPB8Lu4Htaa3nZF60LqUvxdg64VRcwOZfTStcp6OOj0b1mHBCZ4dX+vv+ajmdW82Ct2vNot7Sps6/+up1Ad5urU8gz3FjaX3gt5T3/J+0trji4OUS0koc4DLwdPHhPC3Li0yrPQkhSLBVDD1nYVcXm8r5GtGIIayl+k84e69WeGU5558bGVVDXvf0CvAMaU/R6H0/L1Km3KbewzHYdSIlbS0Y4h/peIb5Tx3RrAcvpy3uIY9zJ3uAB7Z5EXKmO5yzcELweDjIU+DBQ+jiI7lNR7I7F/UqDfiSgYLzHihbH+5wGNK2Rj1fPcLcyWmCjjybZ3il7d6HSSJ58bpEHZrPYV7lco8njnh5PAxApd++zR4Mou3hONM2xzMJ8QJepO2a1eDltCN6cnrgLkBkH0DeMAXq1Z3OizEBiJwhZgEI5rHDQczqgVsxwSIvUrfIWwyMI+ergA+XWsRn8w087jidkD6kdeHSsaQrvGJ7tN/0+QCGxPPidQsjb+gYvco7I/bw/btG1x9+EC8yJfPG49/MptulDpG9few77evYaIfgm7Xg7V4jibmE+P/5GV92QOj/0YzrOpuVlAtxAnTXOJWhs/W2US1QVz7kpawWkCnM5StgILDJO2xPr62/w1BL5L3X0IkyjvBath2E1xRyuub2AV40Y4hfHU+J2xlEKfEPeIqN/1wmNlt9QvglwEM+adcDdaJ8s0DAns+Ltk2zErzc6p4jaMfvdEPHzlx8p0s34d4lL16mEU3oQzgpuUJxM6Lwh/FuY87e7hR8hvRc2tVb1TTtDeFw+IhwOPbPZF9Q1fhZkciKz6vqyvfh1fq8GBPCG3myNdTQe53QwZiXSor3v9aGIVu7tYVCiY7HzosrPZ1TyAnzhvgS37cp415/nPLbtsI368DDHHEUdu5whlcY/kaD0Fn80xe097yLF++4CoYg01nv0eFgoejpUupANpddf3/0RILtOkVRXwiFYiUyExYOx/FZoM87wmE1+LmvXcwuJFMjX1KgjkTFenFiJcWHM8PtH6Q6najXeyZ5+VfQk3fWiXlMQ0LYHeJFW9asAo86DD1p29O5oaOGpvD5s/TwYQfz4l1TOtEbppOhEr5Nokk97ie+ERm4cSA0OBKPD5mRyCCDzWn4LkYHlbyfuUxecfuvv3Hy1RPJnrFJjzsShaTw0NhwYx2Jdoq88FnFFHk+F3xIOSglyGeM3pW8aEuaNeBh3Bwd/F8z6Bw7zMIrQUce4qcUBup+2qvdSq8TVcrtxm34isle85XEe8zrz/+KuSK+ygwTVLaXq2oEoRobMlcPhs0/rz7BJPim9hX7TSfYg5lLvS93dFPU2fkSpu3ABXS7HWDYd6QemYTUMnyzAryXLgkcSg1A0JWHV8sLsGto/5nWFnYtvFZTWhMjxRQutVj1u2Xoc+YyZaUphwa9Qatiy2mZC1TZ/J81x5rjBDA72XRx624tcAzf1IyL9vWLWUPa5RV2yQmMZYzW4Jtx8ODpcgnkdOyMn9pBK7xSTpcQf5HRDj2EF59xFfTeyORwb+7u1Z8wwwTRgNIYdLadJ680t6z4ijmxfrE5rvc+Mhs8nVvpVN8XKL99mV2Md8DHw24uo0sreNGGNaPgZVfj2QDxdgBWltOx3ivb2V80csupW3p29VHxjYPnFPtDqzyhqsfkUNxcEY2bd158ytaSccCsg87WHi3wZcpvX3HCh7sq8HyFZKCQ0QNxXrQhzRh45hUL31VMSr+sFl7zKfHn6Uu635GoR1/uv/AURYlNouPgBVW9Fo2uMmVZ/Qlf7axVmuCjttkN+OxbeTCM6KH2agq+GQEPl0xyCfJ0bujIMPYsq0v/r+R6R9hskizHIhGVOhR0DLyAqtcAXlCO3RuNRqd9jcFMa1QTTx8fDmx3D0iF58PInkxCiPGidanr4L0M6AzpV8yrOaCDsZ3Spb/hDgSuKeX1wJKumyZ9JZ+Qzq6Wcy1ZsuSNBN4NgMYLpkZMVVea5Dl3Engf5Kv3FF45iuNBvcmzPevsMswo6vW9bV6/11oGv2UN4fNZXfghhd2K+VlY2KWcL62LUV7ladVV8NAzLSTFX7g9nW0AkVx5gXqxmPkoz/6eARujnivVbwf13r5G1d7Pqr0lAm9/guWn0ehKT5gaMVWlg67EXlXVwVP46iuUS1l3cfYOS1mvusLo96aOVa3lKn6zZmVIY3YC5+Uu2ybXw5EECiN1er6ugVdICgEKr7dVg842wIdnFmbaMAsoHej70q67JPB4BMtN7QMv+jdVVT3voUJ0zJI4Zrht51XPbpo98qeaWR0O6u0a4tBTg4vfwnfBU90DL9HXjxESeMEwnUGeFZ9NhsbO6eKTBU3o47swJYLm/HaAh7sZ9PlEf39/1U4UpR3s1aXutGS2Gto4qwfumu71W10Dz9wgHEAu+lu4IFkc9q40gIQ3xJkzk4Y6mt/EvMfiz7dp4lv5LkyJ9vmLuP3Vaq+Wg/dLWmVZOHcKM7djLB3g86prtww9WOfMW27DiYGTFVOC5LS+D5s19gnqao6HESWUN12LbjnGzLkrT4krwttozhCfppxiB9nObhsduJ3sOYuE9F/VnpWgzoBIIfKJVjoYDFqyYDCq8tV6ir2wOSENU473COrmWWej/FhRHlb2u9vs353LuZdx/sb+NqRn6UR8yd1mMPqd39YUHtpjLD6OV72mugoeZJIHyRjS9exBGhd8VlddfBWjgDNa4Jhcqu/DGEPWVdMCH9mjiR/E0/u8yp7qlwdjcmTleLNeL0w92mXBwd+fMXBhXZeN2KBYqptXncddx2nE8beX2b87l3Mv4/wta4jHpZPSyQThf6ONnGHfhi6TEB4ubqj/VQZdBw9C+Mpq4g0Iacj5nPBhbBoeVPZ6On426bvR0w9brZ73eFgdouPhDVc1w222ldGYeW38rAv56ma9CLorCDrq8TugQ3gl6Cg9eoDas+YlIbdmBDzIvHHBm+lsuY7lfM6dIeP3bR/aNQvvX0IYKj6ZWnj5XxMfGDPiy8zz5FXsFpgXZG5brtAxpM/bLzrVnEj1bh8zjigbwj/bhOeBCbrrcH92nHJzu2Not1MuKT68RxM+xIvXrRkDDyoN9byN8oZvA76KMwm9SkPa2uhDLp3W/SE8nyBcMbFeMkvDgrlt3dHm1Su/bA6EBk05vNJzPB4M3y8PrWKjUn530Ul4WxB5C8kcT0p/K+g9bZkird16TDv4HQTatyzo9nUsLOhwh0l8pFFPZ2tGwYNKm3veltHEm9yeD4YzinZua6bKI3ndFn8a6zLkOXYPbyLZa47oi8w7LjrFvCjSPxKU40UbNFynw98UiktyKPbKjavOzGxLHMOWAXhsH1moEl/Orp1d8OH1VtQRvMYTOiu8PoTcjxdvWDMOHsR6u/B8tENe8NHOPjDTns9kU4WJlyEHdTYEQo+5QTSLyZ6xJy495otLll18vCzHBmU5ermixK+nz9UDoZVnfV0e7BlNUKfqcpR17SObsUB6kbzHZ/jmZlSlqxa/Ja2L11r7WhleKQffOqL1fpgXb0qzAjzohdDCt1Nv9yYMkRpLOs4wHnaRwBammS+kU+LTSjBPh4aw6wbjuU8xm+y9mBevKnPjQoHdvbE8Rtl68B2F3Z3UoKfx4jOiFy849O8op+PQ7WsHq44UgQzp0ZwhtDx176wBD8JOp3XpO9jByg4HpvsSH27Hk1eNiIfXjQw61wVUQEe56TilA6vxiCBfpKbYE3Q14CskhRcLydZnJm1GDDpDvLpaeIWnyzbRkfDSrAIPwqWWvC7djB316u1SL+r+dJcehmHPmxrCBjQEwLPrgtCD7wicvemEuKZe6GxhPhfKn6rAx3r0L460aU7mekVe/a20L1dZJ5g7vLJ6PpJLtRZenZp14EE483J64Lu8EaYaxYYvY4h/8Hrhb8YIfIA80IV04LRRQzpjuhvVtYQJdEZ1YSPOfGd4ZdBZ342Td1gDj8gXaUgFTZTIU/6mmucrpsQdIy16PjxWkNEC8cn1AT2tBeRazxpnEsIgHTvPCSDp8/FcKsAe42yXZiV40KsXHvlOCkm3uO9woDcJGNLrJIUXZcIFZwqJW+0XDBeHpRL9X/f4MKdYeE1Iwwit7vuT8HTkiSfSCWHtj2rMXlWPMBkReZk7qsFHJ9AOSi+ampm0pPUcSLnaf+AeL5tzhtZHJ80W9FZ5kTJlE+JP4NmcdyWwDH0+jrsavFjbNGvBg3CQyPPdwhqBn4nwPvA4uHnOizERpCpCsx2e2SiJhPQns4kpYHO6lJrggNuNAAN05HVLmGCn1pRpjQizWVnPnXjDRyC8MKIJDXs+SldOoROPHS+si09CtKu03nuas4wu3GKPgkE94Ono89ERrb2eztasBg8ytePfTo39HYyOsF7VjnFy0h/pAIm8CFNOE1chFNve0Tpbxa2NTFMGDzbKPR1mWrIBsMMr83SGtJYXb5v2rGFjFat4Pnap5fk9mtDQbPSUBpwO6Oz1YZ8wAANvruRFyoS5/AqG+Ly5BRFjEbsjMaqJH+M/t12zHjwIt21yCSFmbgh8j7zYZq/XQLU6MSOG8VBOl/IMrwQdNeIE9bjXIffji7RVeF0AgfFbz7yW9qWYlP6aH5aqjlR2i9bV8MSMeU04oZAUE3SML2pmhqpG9LoArx61Ch6d4QkKrSV3eMX/hZQ0SblWAtfzePGOCB0OguO3uIvjzLVg2B8Mi6p3cshmwOum5j14uBSSSQR0AObu0WFdgCCjS+unG9jYLmHEc94Q7mF3CBx1gVlhN7CdvOO08PngdUnNgMfCK0Fn9ZTLGxl3TwAd5ZP/lxq8oTlbRg3pSPJMRmmDdA31WlWvUcy1NEohj7b7NN+HKbPDLp0kz6U1qebMpD54XVIz4FHjrqMOQ0V4Rc8Yl3Eop/tBoy9GgceijsIf7Ms6qEfGkIbNJUsayg3TuvAJyreexPKVno9dGtmR1gNVJ4f0weuSGgEPni6N2dVTgYoLphh+D0+XS0rfN7WDG37QmnKzs63nE3g9mNcUH9t9UeMzXaXXBk4q6NJT1cIu9UK3p/Uezw6HD16XVC94DDp4OmqQivBKjcOWI0/XaHi1NZIUvo6XotgNjgdlMrrwcDOvlILSWu+JVJ9nAFoFfJso7KYCz6aTvSfy4lPyweuS6gUvbQTWEHCTnuGVQSfe2spEQZ14eyM8H3nSipwPBm9I+eg25IW8OJMPXpdUD3hpXVxN0FXMOYxlUD6bEG/FrTpevCl16n21uIxCaQDB5x126XNb3uH5fPC6pGrgYYIg/J5OBNYglCIM4nfb0DCs4ZKBWxt90Z2XOgUelF6L22DSc/zGfZlhfyl9eHpUFz+OshhU6oPXBXmDJ94P8EbXiUMUSsteMgyzwit5EF388ej699acFb1edRI8KK9JJ9N6n+Un1j5jJxDBZ0jPFI3Fx+Wpx4s6+OB1WG7w0LMk8DBk/tqsIZa9R8Iux+4Q6NKPCb62za3cafCgAsJuCh0O70stBNjjuUQgSeF2amYnH7wOyQ0eGiRrSBM48O57r/iON9pPMLUGX0Vb1A3woExS+BTVfxvP78oMnj2rS3tp/0v2dz54HZIbPJg9xMf+H1aw70gkpH9PX7K47TOOdgs8CGP1yKttZ9cdHfuIk855HGA+eB2SF3huA4hIzKn3+utOza3cTfAgDJGnbVW8l8JtPngd0nTgATrqTEySN/gvzLDJF2u7ug0elDX6Tqf92onOEryde99hPngd0nTgIcRSJ2OC8p7N9LkcI5inM4IHn+diEKY5zXxvtloFD9cd07p0JtVxgG+/phWSQpA+l9G27kQuixPMud+2+eB1SPWEWhiScXbzvh7DiGcqP7E+MJpLBjbyTdVUK+DhuWHqFNxN8JTYcxLYvle9PAzD8jFS2r2/tvngdUj1gteosbxwyyIKYeI9fFM11Qp4WU06Db3tSf7moHaaD16HlF8nXcSGIuGZAXy20zAfshG4gW+qploBb0xbfBTrpX7Tow6t2pbFbORNI3PYdVJzBrzspeJxmYQ4NGaIQ/hsl40bgaG0JoXwinq+qZpqOcfTxY9ndHFVu/djjPYDT+J5vaF7JjRnwJstahW8+SIfvDbLB68++eC1WT549ckHr83ywatPPnhtlg9effLBa7N88OqTD16b5YNXn3zw6lAj05G1Ch7mBnx+qOdt/N85Kx+8GsKE23g1OsFzw+R66YrRtdJH+U9V1Sx4mAwoo/WuKqak/xhPBW7FO2L5T3NSPng1lDekr4wPS0X7hj3BtGOP3ncq/9lTzYCnYcpbXTQwPB/jBbG9XFIsZvXA53iROScfvCrC+zeyuvifmKwQAMH4013PZ2pMEdsEePvlEqK+d700aT+MxAYmXIblpJt5mTknH7wqwmykWUP6GRuxzMFj8OFJruHAc3t0wdPzNQIeZhXdk+hNTqQkNh2avQ02jQYe2jGkDbzonJMPXg1lkn3nFIelCfezuICikAps95qfuF7wWHg1enVMo+GEDiOIMQaQvN0zRa3naF58zskHr4bwhhtMyIjRyxhoacMBAxxZvXKK2HrBSxuCNuEIr1Pr3RAwxwzRE+q5JB+8OkQQGMVUgD0QXh52MW+J9CzBNjVR4nTgYSLIkYSg4fmICugYzOJOKl+zAzMX5INXh5CLZfQAwVc+G4EVFtnbfZ61J0rMJKWzvcDD9Tn8njWEtbSe8unRkNNZno46LkfUNdXs610+eHUKrwulvCtFHq7knpUA8JEn3JbFm6x16Uw3eNmEeO+rmw56ZzbRexGF14qpNBh0SfGvmQZndn89ywevAbH5kg0xOZYKsNysLOxS7zdjSPeTXUffT9rgAcKsLmxN671XkIecrOyosNmfdo7ovZ/mm5kX8sFrUAi7OV1IFYcDHnPsWTBSp2Nq6ggYwboXDyG5H0RivWNDegHTUfDVzxv54DWhx7QF+2MmeDbtmQM+5Hy2p3Mavnc/78qgS0o7MtrMvKlxpuWD16RwH5fC6gZ4MXfYnc4QXgm6F7r9hsbZJB+8FoQb+wTShnHK+dxht5rB0+UM8aWRtfMXOqhl8BQlcgYvMi9lakdR2BU3el2Xc5vVe5V2ZvTAvOpIeKll8MLh6Jd5kXkr88bj35wxejfZYdcbOnax+YVduvhZvti8Vt3gkWf7bDS2sgy8cCRuKkpsHS8yr4X3nJHnuwzvyWXTRTihQ3jVpVfGfOimpKrq+wi859zgyUrk33gRS8Fg+BPhcDzDYOPgRVSAF93Ci8x7PXXV4rdkdeEKgGfnfJgSdywZeHFU7/Ohc0hRlBMURX0p4gAvFifw5Mg1vIilcHjFuym0Ph1RB6cKqtGVRGj0F7yILxIGFpB3Y/BhLB+FV4JOmLMDOpuVLIeXE0N7bUdmg0cwJngRS6FQ6B8IvDsQbveBtwJ53vZwOPxuXswXCZdasgnxqlxS2jaqSfO681VNQUXd6EzdLADVMTkcPYcX2Sei9Lr44PlT4KEwWUkORWK8iC8uvNx5zDjCPyE9FPxq8FByWPe5nRjBuEOWo5VvEA8GlWUEWtGmFMbcY0i9DR6RF/Plq6aUgegApWwlm6Ep8OTob5Ys0fbnxfZpYCAqUu/2aWdPBBCSTcqyeh4v5stXVVGnYiF1SLd6MGSGQpFVvFil5FD0W1jI6fVYz0SJPinHYu/hxXz58hSlZd8EL2X8UIcVYTYYjC7mxSqlKLEPEHwjzt4tzIrXsZ/6IddXNQWDsf5QOJ53sgMAcXWEuEryYtWFLq8zMdy3AuY+b1FVta1vy/H1+lcwFFpKHYqMl8MiR/bkeYqyiBetrkgkckgwFL3X6liUw4cVy0rsdorls2KuXV8zq2XLlv2jLEd0JRwtRNR9eR0MrKCzGlQiy3jx6dWvqKeQ23zN2/OtNMPh+F9og6uGhobm/DwgvrzVL4e/QEz8GpEwHCn3dLgUZ4XY6NWapr2BL1KfgkF1KeV1GWcPxTYGH62c4Ls3GFbXUdn3Uf739oY34uv1ov3Iu711+fLlvaFQLERh9ZfEQRZR0dmRgE2lZUrkh033CQaUyLnk+TJuz2dvAN/jkyoyKsvRB2ljN9HfBpEepgpGZtZUj++6Z7Ls/b23qTXK17sfleWsdXp9X3ud++qiEjuR1dQ5uC6oRO+ktn2Z2n4S7e72cjA4I4sV9VZa8F0co+Y0IEe/Tit8xYbMvTF8h0ogpjMj2kG8b3PHkL/Z7evFAAy/qVHqA8jqzUuXRg7h+LSmgYHQyaFI7A/Wxsuv0/g2vw1MMKcUiu5QlHAcIZlj0x6de+65B4XD6hpZiW7DWYD4DtfqVRnf5rbB8VgMDOHv3RSSfxCNRj/IUemMBgYiRyrhWII2eDfF/In44BBVYiUjHyCiUr7NPbNCqQWblcfFnqac/juKonb3SbpI5IJDguHw6ZR4ojNxGyWUjxGIYz58c8vQntSupaCiPkOQ/U5R4luCIXWpLMuVI026LXSbBwZihy8Lhd4rR6Pvx/AX3+aIUXv2h8NHLV+u9rbvrtWCBf8LwsjX3HqoFtMAAAAASUVORK5CYII=;" vertex="1" parent="1">
          <mxGeometry x="186.92000000000002" y="850" width="59.25" height="60" as="geometry" />
        </mxCell>
        <mxCell id="Aihu2LdOpN7aua6iw54k-11" style="edgeStyle=orthogonalEdgeStyle;shape=connector;rounded=0;orthogonalLoop=1;jettySize=auto;html=1;exitX=0.5;exitY=1;exitDx=0;exitDy=0;strokeColor=default;align=center;verticalAlign=middle;fontFamily=Helvetica;fontSize=11;fontColor=default;labelBackgroundColor=default;endArrow=none;endFill=0;" edge="1" parent="1" source="Aihu2LdOpN7aua6iw54k-3" target="Aihu2LdOpN7aua6iw54k-5">
          <mxGeometry relative="1" as="geometry" />
        </mxCell>
        <mxCell id="Aihu2LdOpN7aua6iw54k-15" style="edgeStyle=orthogonalEdgeStyle;shape=connector;rounded=0;orthogonalLoop=1;jettySize=auto;html=1;exitX=0.5;exitY=1;exitDx=0;exitDy=0;strokeColor=default;align=center;verticalAlign=middle;fontFamily=Helvetica;fontSize=11;fontColor=default;labelBackgroundColor=default;endArrow=none;endFill=0;" edge="1" parent="1" source="Aihu2LdOpN7aua6iw54k-3" target="Aihu2LdOpN7aua6iw54k-14">
          <mxGeometry relative="1" as="geometry" />
        </mxCell>
        <mxCell id="Aihu2LdOpN7aua6iw54k-16" style="edgeStyle=orthogonalEdgeStyle;shape=connector;rounded=0;orthogonalLoop=1;jettySize=auto;html=1;exitX=0.5;exitY=1;exitDx=0;exitDy=0;strokeColor=default;align=center;verticalAlign=middle;fontFamily=Helvetica;fontSize=11;fontColor=default;labelBackgroundColor=default;endArrow=none;endFill=0;" edge="1" parent="1" source="Aihu2LdOpN7aua6iw54k-3" target="Aihu2LdOpN7aua6iw54k-13">
          <mxGeometry relative="1" as="geometry" />
        </mxCell>
        <mxCell id="Aihu2LdOpN7aua6iw54k-3" value="SW-CORE-EP" style="shape=image;verticalLabelPosition=bottom;labelBackgroundColor=default;verticalAlign=top;aspect=fixed;imageAspect=0;image=data:image/png,iVBORw0KGgoAAAANSUhEUgAAAJ4AAACgCAYAAAD99dWmAAAAAXNSR0IArs4c6QAAAARnQU1BAACxjwv8YQUAAAAJcEhZcwAAFxEAABcRAcom8z8AACW5SURBVHhe7Z0JmBxlnf+DBx6ruwvIEZipqp5EUUQQcT2QY5WVVfQBPCKigWSmq7q7unuSDDwIJCTVVd2TA4jhksMHVJ79+1fU/67rsYIi/nFVkDtci1yJJMiZZKbP6ZlM1/6+b701qa6u7ul7hpn6Ps/v6Znut6reqvdTv9/vrXrrrQXtUDi84t2KEvnSQEiNKIp6SSgUv1IORX3rqEWuDIbVbwyEYhH6O+Zpssd3ZNRGUa/vpwzLOZZVwmo0FFK/GIlEjuNNPjMKhUJv7u+PH0s7MCzL0T8qoeg2WYnm6NOMRFeYK1ZeYA6u8K2zdr4ZUQdNJRQzQ+HOG2/fnbKs3kdQXk4MfHzp0qV/x5HovAYU5ZOhUPQHVJF8OBI3o7GVpkqw4e9wOM4qCQB967zhWIcdcHTS0L5oZ7Q3a+tIvECe8C7yhEsIwn/geLRfwaB6DHm4b8uKOmFvHBXyOiC+zW1zggivG1TU2/oV9V84Ku2THI6eo4TU52LxVWyDXpWBoUKoiG9zx8Kwado8GltFf8d2K+HYJYODg2/h2DQvTdPeRDR/g7xcHl7Oe8NxE0DGB4csD6ioe+j7XRSKd/v2+ja0I7XnKNoZ7VvL8bB0iyBVwtHvnxs79yCOUOMyTXO/YDC6MaJa+Zt7Q/tIV/cqSuzOoBK9ekBWBxVl8DTKAU8NBsOfnu9GjfYvXt83Ys2uo9Zy7t+qlUU7hsPh06ldI7Icu4La+VdySB2Nxa1Uy80EvoODImf188jSyCEcpcZElYnaodO5cnwHuumMGCe6f0gVPD0YDB7IF/M1h7VkSfQdciRykhKOXE0s7LY7lW4+4JAIvh9/PhR6O1+0PhF0pyFmY8XuleJyCf19dzAc+/SyZcveyhfxNb+0X39/+Fhi5NZwOF5yOyfAyJyTHFmPstYi02jZsuhh5M0ejFI891qZokT+TVGUhby4r3msJUuW7K8o0Qsoz69wUqxjEomnZTn8BV68tkBphafbB90tAwMD7+RFffliCobUsykavuLmBiGXnNj9kcg0+R65zWMJvD0R1RG3eXiVZfX7oUZjtq95I9xiI/j2unM+dE6JnfN5MW/JociVKIhczl7QojiyVZblHl7Mly9PBYOR68FLKFwOHn0+SU7rXbxYuaLR6GFKSP2LdYnEWgj0khVlOfp1XsyXr6oiuARyUn/hsDGDE5MVXHKLfIkXKxfRKlNCOO50lbhoOKBEftWWq9G+5oWoszHkGTUV9d95kTLtRwtcHx88f6owFiSbkMPxIC/jy9e0os7nkdSh2ObsaOBv+u6p5cvVXl7MEnm0vyfwbndeQrEWVJ+T5UE/t3NpVBNOSGvi6t0b+zo3KuP1q/2CSvQm3F6zWcKlFQq3aep//CsvY4m6u0cSeM/yi8NT4BGlP+NFfHHl9J5/yurik+blfWbOCHz71QuP9C8vuRQMRuO8f8BYQvQET8FQ5GJexFJ/KHoiFSg6C7K/lehmXsQXKWcsOr6QFLeamwJmcThg7l0fMDN64MbSUM/beBFfJFmO/KssqyNs0AB3ZLH4EO5kXM6LWAoGQ58BkXZCyPM7KhhdzYvMe2UN8bi8QdBtDJh5QyJvJ5njqYA5CfgM8Qbf8+2TLMvvJ47K8jzr/m3kFl7EEgh1g0cxuURd4K/yIvNaWW3Rhyi8Pmpu7JuCzjYbvqwhXf+ydtQ7+CLzWpS6HU39g+3NgjdJ4J3Bi8xb7SHo8rr4MMKrGzoYAUfwSSzsZnXpuhe0hfP+7k7L4IVC6lm8yLwUQXVsISU9yKBLVkLntPFhC75MQrq+dPkx3XsIZhbKB68FAboMPB1yummgs22cdzjg+UoXHDpv4fPBa1JZTfwgwUaerjKnq2UIu0UKuxMEIHVErja/K87L8Yo+eE0oowWOGUtK97k9HX3HvJkTNFiROhfu75HzAT7qCV8zH3M+H7wGldH6js7pPKdzgmRBVKSe7VP0OWn/ViAY6btXKLQ+g56te5kJ+i5tSNeY8ww+H7wGhJwur0sPsPDq8HR2jzWjC+vTmhCi30oADr9ZnQnhnkJS+FQhKd7v9pI2fATrVc9vnj8XmX3w6lTG6PkAwXSvGxzka5MbCK6keKOpLXhDzhDPAkw2eOzicUJ48EdLFryRX2B+FODay7NLLdTbnSAb1cWrt2nzI+fzwatD5MWOyiQky1txYCzoAmaJoCPYbippB/49yhKA51SApwsP2YMFRrTeD5PXfByh2l4PDMvAKCxfWZoHns8Hbxohp6P8jDoS5b1XhFdAldOFm1/TFjPooGrg7dHEf+RFFuT0wD9R2H3UDTKWY71dXfpmafPH5jR8Png1lNbE9+aT4j3OnM6+HGJ7ulc3HVR2/7Ue8CDqoHyUwu7jTvissGvBR+veZFJ45sXnnHzwqsjUjto/YwjfMS/rm4IIhvBqIqej33ZfdEDFWLt6wYNGCb6sLvwPvKm9fhiHOkNh97O86JyTD14V5ZOH9+Z08SXn9Tfb06V14bsEi+cAz0bAg3Ja4CMFXXzM6fmwLP7PGYEkLzbn5INXRebFwgEU+v5kXtHHvBwAgqdL6+L3zGsPrjrCpFHwoJwmfqyQFJ6Ad2XbQa83KRUoD/wMLzLn5INXQ5SHnUkebzvyu4lhKY+crpqns9UMeBCGygP0YlJ6jba1cxQ5nnbKm/jPc04+eNNoNwYCGMLSnNF7Rj1j6ZoFD8pq4mEZXfzkCIVf/tWclQ9em9UKePNJPnhtlg9effLBa7N88OqTD16b5YNXn3zw2iwfvPo0Z8Ab13pPzBrS5kJKvDJvSBdmE5LSsiWtz7QufIJvZlq1Cp6pHfyOjB5YUhx21aVJozqEcoaYpPpswQXpzHDgUL6pGdWcAS+7TroQF2BxwRdP8LPPVm2zZQVDfIUar679bAU8DAalk2cL7lqYmxd516kZY8dlkZnTpb0Y3sU3N6OaM+DlNGkFGnosZTV4uwy3sXij/ZxvqqZaAQ+jVgi8PJZx16NVw7O9tA+7x4aFo/jmZlQ+eHUYPGjWEH/PN1VTrYBHIfbTuEtS6MA++OB1SPWAB+8FKDDsCJ/1GAYJALyMLn6Pb6qmWgEvbYjvo+3sxCBRdz1qGfZnuhPOB69Dmg48QJfVxXH6exd9psmDZeqx8ZSUpvJ3YRQy31RNtZTjmQv2ow7BuQVDer6Ykjzr42W0nT1Ux5GsLpXs/XWbD16HNB14GGEylpReziVEtbix9/25lPgx2HgNy68XP04N9pFnPcbdVVMr4NkaSS5eNJ4UTnDWpVpdCaaPFlPChzK6dDNtc6+9Xbf54HVI9YRahE1K3u8eNfrezRdru9oBXqMa1cTl48PSq9iue59t88HrkLzAwwPW8HT2/6yHao11ezBrHHEsX7St6jZ4aU0KjSXFLJ50o5PK2k/atjV8ft+x8MHrkNzgoeEp58lS7lN0NgIaBck7lbs3o/UczRdvm7oJXtqQQnmCzhoqvw8yvr+7KPxO5Xw+eB2SGzxchKXE+8+j64QLc7r4mrNxmOfD0PKEdH+9nYZ61S3w0oYgjw+LoyVa/9R+sZOKPHpC+k0uEYjR/k/lfD54HZIXePT5wIjWc2BaE8+iBhiphK8PjxI+MGIsOp6vpmV1AzxAN5YS09gfO7xie8yTG9LvSylhYV4PnIRUwwevw6oC3kM5rfdw/D6iiV+j/8vCEvMQgC8pbaOwXD7beJPqJHjmjxa8MZPAfVdxDOudyunI4OkA3Z6kEEBZSjE+i2Phg9dhVQMvn1w09d6ETFI6ezzl5fnYpZYdGS3Q8jvzOwXeY3jcMiENw4thnWX1J+iyCelP5N0X8+I+eN1SPeBBI0bga8WUNOpsPLs8NeILBa3vU7xoU+oEeL/TFryJOgqp8WFpb2VHiT33+ydav8SLM/ngdUn1ggfh7gBBlnN6PmsZjESRduKeKS/asNoNnqYteENmnZgcSwUm99J6nZdMWHhNSX8cSfYu4sWn5IPXJTUCHkRhdel4UmIJOsrbxsPuXwvD4id50YbUTvDweGNOEw1aV8l9XQ7QYXqNUe3w9/DiZfLB65IaBQ8CfBR207j4imVsw4PblKg/n9HEf+ZF6xYehcT6nOBldeHRkYuFA3iRuvQ7QKeLCQqvE17XIbOGeO9IcnGFp7Plg9clNQMeNJqQllFjloVdq8OBoVAUdtcKp/KidSmblE6jdRQx+NIe2ZJNiL9vdLrZDEFH+7LXmrTRqhelAXZ4pY7EoqmOhJd88LqkZsGDqGHPI8/HbjthWdvMDbhEEdieWVt/2EV4zGrixZSPPUd12ZXXxfvyeu9J/OdpheUBHQEz6Zy3hdUHHQkjcM+rhnQkL15VPnhtVK1pu1oBD8obvecVh6WMs7fLPB8Lu4Htaa3nZF60LqUvxdg64VRcwOZfTStcp6OOj0b1mHBCZ4dX+vv+ajmdW82Ct2vNot7Sps6/+up1Ad5urU8gz3FjaX3gt5T3/J+0trji4OUS0koc4DLwdPHhPC3Li0yrPQkhSLBVDD1nYVcXm8r5GtGIIayl+k84e69WeGU5558bGVVDXvf0CvAMaU/R6H0/L1Km3KbewzHYdSIlbS0Y4h/peIb5Tx3RrAcvpy3uIY9zJ3uAB7Z5EXKmO5yzcELweDjIU+DBQ+jiI7lNR7I7F/UqDfiSgYLzHihbH+5wGNK2Rj1fPcLcyWmCjjybZ3il7d6HSSJ58bpEHZrPYV7lco8njnh5PAxApd++zR4Mou3hONM2xzMJ8QJepO2a1eDltCN6cnrgLkBkH0DeMAXq1Z3OizEBiJwhZgEI5rHDQczqgVsxwSIvUrfIWwyMI+ergA+XWsRn8w087jidkD6kdeHSsaQrvGJ7tN/0+QCGxPPidQsjb+gYvco7I/bw/btG1x9+EC8yJfPG49/MptulDpG9few77evYaIfgm7Xg7V4jibmE+P/5GV92QOj/0YzrOpuVlAtxAnTXOJWhs/W2US1QVz7kpawWkCnM5StgILDJO2xPr62/w1BL5L3X0IkyjvBath2E1xRyuub2AV40Y4hfHU+J2xlEKfEPeIqN/1wmNlt9QvglwEM+adcDdaJ8s0DAns+Ltk2zErzc6p4jaMfvdEPHzlx8p0s34d4lL16mEU3oQzgpuUJxM6Lwh/FuY87e7hR8hvRc2tVb1TTtDeFw+IhwOPbPZF9Q1fhZkciKz6vqyvfh1fq8GBPCG3myNdTQe53QwZiXSor3v9aGIVu7tYVCiY7HzosrPZ1TyAnzhvgS37cp415/nPLbtsI368DDHHEUdu5whlcY/kaD0Fn80xe097yLF++4CoYg01nv0eFgoejpUupANpddf3/0RILtOkVRXwiFYiUyExYOx/FZoM87wmE1+LmvXcwuJFMjX1KgjkTFenFiJcWHM8PtH6Q6najXeyZ5+VfQk3fWiXlMQ0LYHeJFW9asAo86DD1p29O5oaOGpvD5s/TwYQfz4l1TOtEbppOhEr5Nokk97ie+ERm4cSA0OBKPD5mRyCCDzWn4LkYHlbyfuUxecfuvv3Hy1RPJnrFJjzsShaTw0NhwYx2Jdoq88FnFFHk+F3xIOSglyGeM3pW8aEuaNeBh3Bwd/F8z6Bw7zMIrQUce4qcUBup+2qvdSq8TVcrtxm34isle85XEe8zrz/+KuSK+ygwTVLaXq2oEoRobMlcPhs0/rz7BJPim9hX7TSfYg5lLvS93dFPU2fkSpu3ABXS7HWDYd6QemYTUMnyzAryXLgkcSg1A0JWHV8sLsGto/5nWFnYtvFZTWhMjxRQutVj1u2Xoc+YyZaUphwa9Qatiy2mZC1TZ/J81x5rjBDA72XRx624tcAzf1IyL9vWLWUPa5RV2yQmMZYzW4Jtx8ODpcgnkdOyMn9pBK7xSTpcQf5HRDj2EF59xFfTeyORwb+7u1Z8wwwTRgNIYdLadJ680t6z4ijmxfrE5rvc+Mhs8nVvpVN8XKL99mV2Md8DHw24uo0sreNGGNaPgZVfj2QDxdgBWltOx3ivb2V80csupW3p29VHxjYPnFPtDqzyhqsfkUNxcEY2bd158ytaSccCsg87WHi3wZcpvX3HCh7sq8HyFZKCQ0QNxXrQhzRh45hUL31VMSr+sFl7zKfHn6Uu635GoR1/uv/AURYlNouPgBVW9Fo2uMmVZ/Qlf7axVmuCjttkN+OxbeTCM6KH2agq+GQEPl0xyCfJ0bujIMPYsq0v/r+R6R9hskizHIhGVOhR0DLyAqtcAXlCO3RuNRqd9jcFMa1QTTx8fDmx3D0iF58PInkxCiPGidanr4L0M6AzpV8yrOaCDsZ3Spb/hDgSuKeX1wJKumyZ9JZ+Qzq6Wcy1ZsuSNBN4NgMYLpkZMVVea5Dl3Engf5Kv3FF45iuNBvcmzPevsMswo6vW9bV6/11oGv2UN4fNZXfghhd2K+VlY2KWcL62LUV7ladVV8NAzLSTFX7g9nW0AkVx5gXqxmPkoz/6eARujnivVbwf13r5G1d7Pqr0lAm9/guWn0ehKT5gaMVWlg67EXlXVwVP46iuUS1l3cfYOS1mvusLo96aOVa3lKn6zZmVIY3YC5+Uu2ybXw5EECiN1er6ugVdICgEKr7dVg842wIdnFmbaMAsoHej70q67JPB4BMtN7QMv+jdVVT3voUJ0zJI4Zrht51XPbpo98qeaWR0O6u0a4tBTg4vfwnfBU90DL9HXjxESeMEwnUGeFZ9NhsbO6eKTBU3o47swJYLm/HaAh7sZ9PlEf39/1U4UpR3s1aXutGS2Gto4qwfumu71W10Dz9wgHEAu+lu4IFkc9q40gIQ3xJkzk4Y6mt/EvMfiz7dp4lv5LkyJ9vmLuP3Vaq+Wg/dLWmVZOHcKM7djLB3g86prtww9WOfMW27DiYGTFVOC5LS+D5s19gnqao6HESWUN12LbjnGzLkrT4krwttozhCfppxiB9nObhsduJ3sOYuE9F/VnpWgzoBIIfKJVjoYDFqyYDCq8tV6ir2wOSENU473COrmWWej/FhRHlb2u9vs353LuZdx/sb+NqRn6UR8yd1mMPqd39YUHtpjLD6OV72mugoeZJIHyRjS9exBGhd8VlddfBWjgDNa4Jhcqu/DGEPWVdMCH9mjiR/E0/u8yp7qlwdjcmTleLNeL0w92mXBwd+fMXBhXZeN2KBYqptXncddx2nE8beX2b87l3Mv4/wta4jHpZPSyQThf6ONnGHfhi6TEB4ubqj/VQZdBw9C+Mpq4g0Iacj5nPBhbBoeVPZ6On426bvR0w9brZ73eFgdouPhDVc1w222ldGYeW38rAv56ma9CLorCDrq8TugQ3gl6Cg9eoDas+YlIbdmBDzIvHHBm+lsuY7lfM6dIeP3bR/aNQvvX0IYKj6ZWnj5XxMfGDPiy8zz5FXsFpgXZG5brtAxpM/bLzrVnEj1bh8zjigbwj/bhOeBCbrrcH92nHJzu2Not1MuKT68RxM+xIvXrRkDDyoN9byN8oZvA76KMwm9SkPa2uhDLp3W/SE8nyBcMbFeMkvDgrlt3dHm1Su/bA6EBk05vNJzPB4M3y8PrWKjUn530Ul4WxB5C8kcT0p/K+g9bZkird16TDv4HQTatyzo9nUsLOhwh0l8pFFPZ2tGwYNKm3veltHEm9yeD4YzinZua6bKI3ndFn8a6zLkOXYPbyLZa47oi8w7LjrFvCjSPxKU40UbNFynw98UiktyKPbKjavOzGxLHMOWAXhsH1moEl/Orp1d8OH1VtQRvMYTOiu8PoTcjxdvWDMOHsR6u/B8tENe8NHOPjDTns9kU4WJlyEHdTYEQo+5QTSLyZ6xJy495otLll18vCzHBmU5ermixK+nz9UDoZVnfV0e7BlNUKfqcpR17SObsUB6kbzHZ/jmZlSlqxa/Ja2L11r7WhleKQffOqL1fpgXb0qzAjzohdDCt1Nv9yYMkRpLOs4wHnaRwBammS+kU+LTSjBPh4aw6wbjuU8xm+y9mBevKnPjQoHdvbE8Rtl68B2F3Z3UoKfx4jOiFy849O8op+PQ7WsHq44UgQzp0ZwhtDx176wBD8JOp3XpO9jByg4HpvsSH27Hk1eNiIfXjQw61wVUQEe56TilA6vxiCBfpKbYE3Q14CskhRcLydZnJm1GDDpDvLpaeIWnyzbRkfDSrAIPwqWWvC7djB316u1SL+r+dJcehmHPmxrCBjQEwLPrgtCD7wicvemEuKZe6GxhPhfKn6rAx3r0L460aU7mekVe/a20L1dZJ5g7vLJ6PpJLtRZenZp14EE483J64Lu8EaYaxYYvY4h/8Hrhb8YIfIA80IV04LRRQzpjuhvVtYQJdEZ1YSPOfGd4ZdBZ342Td1gDj8gXaUgFTZTIU/6mmucrpsQdIy16PjxWkNEC8cn1AT2tBeRazxpnEsIgHTvPCSDp8/FcKsAe42yXZiV40KsXHvlOCkm3uO9woDcJGNLrJIUXZcIFZwqJW+0XDBeHpRL9X/f4MKdYeE1Iwwit7vuT8HTkiSfSCWHtj2rMXlWPMBkReZk7qsFHJ9AOSi+ampm0pPUcSLnaf+AeL5tzhtZHJ80W9FZ5kTJlE+JP4NmcdyWwDH0+jrsavFjbNGvBg3CQyPPdwhqBn4nwPvA4uHnOizERpCpCsx2e2SiJhPQns4kpYHO6lJrggNuNAAN05HVLmGCn1pRpjQizWVnPnXjDRyC8MKIJDXs+SldOoROPHS+si09CtKu03nuas4wu3GKPgkE94Ono89ERrb2eztasBg8ytePfTo39HYyOsF7VjnFy0h/pAIm8CFNOE1chFNve0Tpbxa2NTFMGDzbKPR1mWrIBsMMr83SGtJYXb5v2rGFjFat4Pnap5fk9mtDQbPSUBpwO6Oz1YZ8wAANvruRFyoS5/AqG+Ly5BRFjEbsjMaqJH+M/t12zHjwIt21yCSFmbgh8j7zYZq/XQLU6MSOG8VBOl/IMrwQdNeIE9bjXIffji7RVeF0AgfFbz7yW9qWYlP6aH5aqjlR2i9bV8MSMeU04oZAUE3SML2pmhqpG9LoArx61Ch6d4QkKrSV3eMX/hZQ0SblWAtfzePGOCB0OguO3uIvjzLVg2B8Mi6p3cshmwOum5j14uBSSSQR0AObu0WFdgCCjS+unG9jYLmHEc94Q7mF3CBx1gVlhN7CdvOO08PngdUnNgMfCK0Fn9ZTLGxl3TwAd5ZP/lxq8oTlbRg3pSPJMRmmDdA31WlWvUcy1NEohj7b7NN+HKbPDLp0kz6U1qebMpD54XVIz4FHjrqMOQ0V4Rc8Yl3Eop/tBoy9GgceijsIf7Ms6qEfGkIbNJUsayg3TuvAJyreexPKVno9dGtmR1gNVJ4f0weuSGgEPni6N2dVTgYoLphh+D0+XS0rfN7WDG37QmnKzs63nE3g9mNcUH9t9UeMzXaXXBk4q6NJT1cIu9UK3p/Uezw6HD16XVC94DDp4OmqQivBKjcOWI0/XaHi1NZIUvo6XotgNjgdlMrrwcDOvlILSWu+JVJ9nAFoFfJso7KYCz6aTvSfy4lPyweuS6gUvbQTWEHCTnuGVQSfe2spEQZ14eyM8H3nSipwPBm9I+eg25IW8OJMPXpdUD3hpXVxN0FXMOYxlUD6bEG/FrTpevCl16n21uIxCaQDB5x126XNb3uH5fPC6pGrgYYIg/J5OBNYglCIM4nfb0DCs4ZKBWxt90Z2XOgUelF6L22DSc/zGfZlhfyl9eHpUFz+OshhU6oPXBXmDJ94P8EbXiUMUSsteMgyzwit5EF388ej699acFb1edRI8KK9JJ9N6n+Un1j5jJxDBZ0jPFI3Fx+Wpx4s6+OB1WG7w0LMk8DBk/tqsIZa9R8Iux+4Q6NKPCb62za3cafCgAsJuCh0O70stBNjjuUQgSeF2amYnH7wOyQ0eGiRrSBM48O57r/iON9pPMLUGX0Vb1A3woExS+BTVfxvP78oMnj2rS3tp/0v2dz54HZIbPJg9xMf+H1aw70gkpH9PX7K47TOOdgs8CGP1yKttZ9cdHfuIk855HGA+eB2SF3huA4hIzKn3+utOza3cTfAgDJGnbVW8l8JtPngd0nTgATrqTEySN/gvzLDJF2u7ug0elDX6Tqf92onOEryde99hPngd0nTgIcRSJ2OC8p7N9LkcI5inM4IHn+diEKY5zXxvtloFD9cd07p0JtVxgG+/phWSQpA+l9G27kQuixPMud+2+eB1SPWEWhiScXbzvh7DiGcqP7E+MJpLBjbyTdVUK+DhuWHqFNxN8JTYcxLYvle9PAzD8jFS2r2/tvngdUj1gteosbxwyyIKYeI9fFM11Qp4WU06Db3tSf7moHaaD16HlF8nXcSGIuGZAXy20zAfshG4gW+qploBb0xbfBTrpX7Tow6t2pbFbORNI3PYdVJzBrzspeJxmYQ4NGaIQ/hsl40bgaG0JoXwinq+qZpqOcfTxY9ndHFVu/djjPYDT+J5vaF7JjRnwJstahW8+SIfvDbLB68++eC1WT549ckHr83ywatPPnhtlg9effLBa7N88OqTD16b5YNXn3zw6lAj05G1Ch7mBnx+qOdt/N85Kx+8GsKE23g1OsFzw+R66YrRtdJH+U9V1Sx4mAwoo/WuKqak/xhPBW7FO2L5T3NSPng1lDekr4wPS0X7hj3BtGOP3ncq/9lTzYCnYcpbXTQwPB/jBbG9XFIsZvXA53iROScfvCrC+zeyuvifmKwQAMH4013PZ2pMEdsEePvlEqK+d700aT+MxAYmXIblpJt5mTknH7wqwmykWUP6GRuxzMFj8OFJruHAc3t0wdPzNQIeZhXdk+hNTqQkNh2avQ02jQYe2jGkDbzonJMPXg1lkn3nFIelCfezuICikAps95qfuF7wWHg1enVMo+GEDiOIMQaQvN0zRa3naF58zskHr4bwhhtMyIjRyxhoacMBAxxZvXKK2HrBSxuCNuEIr1Pr3RAwxwzRE+q5JB+8OkQQGMVUgD0QXh52MW+J9CzBNjVR4nTgYSLIkYSg4fmICugYzOJOKl+zAzMX5INXh5CLZfQAwVc+G4EVFtnbfZ61J0rMJKWzvcDD9Tn8njWEtbSe8unRkNNZno46LkfUNdXs610+eHUKrwulvCtFHq7knpUA8JEn3JbFm6x16Uw3eNmEeO+rmw56ZzbRexGF14qpNBh0SfGvmQZndn89ywevAbH5kg0xOZYKsNysLOxS7zdjSPeTXUffT9rgAcKsLmxN671XkIecrOyosNmfdo7ovZ/mm5kX8sFrUAi7OV1IFYcDHnPsWTBSp2Nq6ggYwboXDyG5H0RivWNDegHTUfDVzxv54DWhx7QF+2MmeDbtmQM+5Hy2p3Mavnc/78qgS0o7MtrMvKlxpuWD16RwH5fC6gZ4MXfYnc4QXgm6F7r9hsbZJB+8FoQb+wTShnHK+dxht5rB0+UM8aWRtfMXOqhl8BQlcgYvMi9lakdR2BU3el2Xc5vVe5V2ZvTAvOpIeKll8MLh6Jd5kXkr88bj35wxejfZYdcbOnax+YVduvhZvti8Vt3gkWf7bDS2sgy8cCRuKkpsHS8yr4X3nJHnuwzvyWXTRTihQ3jVpVfGfOimpKrq+wi859zgyUrk33gRS8Fg+BPhcDzDYOPgRVSAF93Ci8x7PXXV4rdkdeEKgGfnfJgSdywZeHFU7/Ohc0hRlBMURX0p4gAvFifw5Mg1vIilcHjFuym0Ph1RB6cKqtGVRGj0F7yILxIGFpB3Y/BhLB+FV4JOmLMDOpuVLIeXE0N7bUdmg0cwJngRS6FQ6B8IvDsQbveBtwJ53vZwOPxuXswXCZdasgnxqlxS2jaqSfO681VNQUXd6EzdLADVMTkcPYcX2Sei9Lr44PlT4KEwWUkORWK8iC8uvNx5zDjCPyE9FPxq8FByWPe5nRjBuEOWo5VvEA8GlWUEWtGmFMbcY0i9DR6RF/Plq6aUgegApWwlm6Ep8OTob5Ys0fbnxfZpYCAqUu/2aWdPBBCSTcqyeh4v5stXVVGnYiF1SLd6MGSGQpFVvFil5FD0W1jI6fVYz0SJPinHYu/hxXz58hSlZd8EL2X8UIcVYTYYjC7mxSqlKLEPEHwjzt4tzIrXsZ/6IddXNQWDsf5QOJ53sgMAcXWEuEryYtWFLq8zMdy3AuY+b1FVta1vy/H1+lcwFFpKHYqMl8MiR/bkeYqyiBetrkgkckgwFL3X6liUw4cVy0rsdorls2KuXV8zq2XLlv2jLEd0JRwtRNR9eR0MrKCzGlQiy3jx6dWvqKeQ23zN2/OtNMPh+F9og6uGhobm/DwgvrzVL4e/QEz8GpEwHCn3dLgUZ4XY6NWapr2BL1KfgkF1KeV1GWcPxTYGH62c4Ls3GFbXUdn3Uf739oY34uv1ov3Iu711+fLlvaFQLERh9ZfEQRZR0dmRgE2lZUrkh033CQaUyLnk+TJuz2dvAN/jkyoyKsvRB2ljN9HfBpEepgpGZtZUj++6Z7Ls/b23qTXK17sfleWsdXp9X3ud++qiEjuR1dQ5uC6oRO+ktn2Z2n4S7e72cjA4I4sV9VZa8F0co+Y0IEe/Tit8xYbMvTF8h0ogpjMj2kG8b3PHkL/Z7evFAAy/qVHqA8jqzUuXRg7h+LSmgYHQyaFI7A/Wxsuv0/g2vw1MMKcUiu5QlHAcIZlj0x6de+65B4XD6hpZiW7DWYD4DtfqVRnf5rbB8VgMDOHv3RSSfxCNRj/IUemMBgYiRyrhWII2eDfF/In44BBVYiUjHyCiUr7NPbNCqQWblcfFnqac/juKonb3SbpI5IJDguHw6ZR4ojNxGyWUjxGIYz58c8vQntSupaCiPkOQ/U5R4luCIXWpLMuVI026LXSbBwZihy8Lhd4rR6Pvx/AX3+aIUXv2h8NHLV+u9rbvrtWCBf8LwsjX3HqoFtMAAAAASUVORK5CYII=;" vertex="1" parent="1">
          <mxGeometry x="600.87" y="850" width="59.25" height="60" as="geometry" />
        </mxCell>
        <mxCell id="Aihu2LdOpN7aua6iw54k-4" value="MARI02" style="shape=image;verticalLabelPosition=bottom;labelBackgroundColor=default;verticalAlign=top;aspect=fixed;imageAspect=0;image=data:image/png,iVBORw0KGgoAAAANSUhEUgAAAG0AAACfCAYAAADzoldEAAAAAXNSR0IArs4c6QAAAARnQU1BAACxjwv8YQUAAAAJcEhZcwAAFxEAABcRAcom8z8AAA5ySURBVHhe7Z17rBxVHccvCCKgAhZRfCEvMQqtMaQCYq5igVoL1NCb0N7nznnNmTOzey+3LUKJhSCJNELAQoF/9A+J8pZQg88YiURLFJREBKQUUB6BtoDAbWkpXX+/mbNlu53dnbl3d3Ym/D7JN9vHnLNnft85zz0z00e8BxgcHPywEOYkKU2Jc+8GrswvQPcKZf4mXfOokB6piZgyf2DSWwfx+inE7lKlygvUqPqsDW3nUUp9UihvwnX9++Fzh2cq1T3kj1cNqaU8g4ripb3oUynzrBDej6XWi/r7+/ez4Z4Zw8PDs7QOLoYr5Wk/mKiilA6qUhnSDKVcH8wrV4PyhVVXB2/Dv93Hx/jXbOinh5Te6ZDxejQqvCrgSxq/OBT8O/4fqb1i4wcC06IKocxWLt3vYzdkbUgOY2IUMno1zCjmy/AKKVcmw6vE9yeg+pOSCOMZlCfDPzeLa2Se/+sRIY61drSHMT2k3GA71q76DPFqwHYZvxDa4edgQLJWSvcqqJGXc1IiCaGv5FJfA93NA64uh2MBNKo+zmgmGgv93hNS+p+3tjTHccz5kOitRsPw72DaO/BlDwrXnM+5+ZxNQkwDKeUhJaH7YVB3PVSQzThQaax52JIp5f1VL9WH2WR7M8q9L4Epr2Btqk+MGWpTeQnMWjowMPA+ezjRIbA2QWt1OzaL2JrVxx7/DVq1q+2he7Jq1ap9oVm8B5u++kTRFWA2QrU+zR5KdIH+/lX7MaGvwNpWbxw2nRD/nRD/efbQd3GkXqR1eWd9AmwSoeb9hzE11x5GdBkw53uNTWVU2/T9o6OjH7CHQbMIf4FZ+l3Y+dUORPNA2xhjZ9rDiAyAvm5/GODdhqPymhdooPYCNO7b9jBc7fDnwH/sqncXm0nO9Rp7CJEh0E3NBk9exFWTd/0Yr8Lo8+f2kL4+MId5YdsZmRYOQaW/mY2w2fYQImOgVq2tr222q3p+TOtP4//vAw7+sX6IjwdDonvw//AAInuY8ueCF6/Xxhj4CaZtZ1KfE/ZnMFfYUBvmR+1nGZpGeZFNT/QAmFq9H0x6rn7i7WNlUnpF35Il8nCpvI21mmYd3cpd9xSbnugBkWn6AZgf7zatMr4c+7XL+0ql0kfrTYPZObhpprjUgeu6Z8Nwf0G3JYR7LufuKR37aaLLDAzIQ6D7mIejubjziRMeCzprcnLyYJtNW7j0r8VlrpppYbelvJv3Mg0FNW0XF3orfMlW+PO2rkvo7VCG14Q0/wYDtS1z7giC4AAwYAWU82khvCmI0Vux5xMjPBZjCs3dRibUlXvMuZrApVlTbxrO16Cm3RlrGgr7tiyFzbIdAL1cKqkv2HLnChdaAwj8jtrkdzoKF4g1js7l6TbbpsSZBhfMbU1Ng6sjc+FJQVB2SenNt+XOFZx756FhcWVPKowtDi4Y8xbYbJuS2jS88jFz/PkgK+GqNnS+z4x2c9/EDFBKzYGL6lU/wF+a48+hnazpu8bGxJdttk1JZRpk+g4U7iUe/mamn89EyrwABXoYBiQLbZlzBy6qQ20bhHg9EZY37jxaSCr/ebgon+RcQ+so97fZNiWxadGQ37zCmPm643hHlUr6mCw0NqaOhxM5yJY31+BWAMbYcXHn0UwjI+JYIcSxg4NB4m0EiU3DJhGuok0BDz5l0xI9Ip1p0tssRJB8fwLRFci0AkKmFZBUpsGocZMZNrNsWqJHJDbNjh7fgATjXHlLspLy/CWOoxclWd7pJYOD4kgm9QCWN+48WkkpP5TjOJ+w2bUksWkoXJnASSAelJVwCcv+Wr4WV7htuXMFXFCHMqbX7d6kG3MerYRpypVlVSb0X0ZHvY/bbJuSyjQU9GuZK2qa9Q7G1FdtuXOF48hv1tYQ48qfRBhbjDXn7hk226YUwjRsmqE/3SGE7rflzhWlkrsQW6CZxAfT4g/OjLVfX01nGq5G2+3fWMhsNFEdn1iOV+DvpJSH2HLnCs750Yy7D2ETN73YTETNI9ePLV3qHGWzbUpi07DqS/wNSOhbcDcWNFdrs5CU+ib4zstwuceWOZfgVEgIc4VQ3o1x59FKeI5KB6uHOU+0pT6xaeE8TZlNnuO1vRKI7pLONJhcK1XJ5c8j7yVSm0YrIr2HTCsgqU3j3D/apiV6ROqBCKff03pOYtPsbP9tGKL+A7Q+EymzHob762EYfWuppObYMueSUkmeLqS+G6ZDUN6Yc2kjJvQ9pbh7zWJIbFpN+HdMkJVw8olrehCMh5fICw+35c4VuF0AJtcbcA0xWnyIP5dWwk1BYPqLSW5/Tm0a1LbMZWv5TqZMLu+JK3F3Ye32o8ayJxWmxTy6soWuF8KrF5qQN6U0J9ty54rwxnYZ9ftx5U8iXF/FGuo4+hs226akNi1azQ7Cp/NkIQwEfOc2xvSVed3TPzQ0ebDD9RoI/PawvDHn0UpoGKTbDs3jLY7jfMhm25TEpkUr7WbK4d5VDneXQ8e5IgvBd12atIPuNUx5C6DMKxvPoZXg/C5ypHeJEP67t+C2IbFptSG/604eYdMSPSKdabQikgvItAJCphWQ1H2a57XfeEJ0l1Smcem9JqVe5DjyZCmzkRDiK3ijgi1vrhkZ4V9kTM2NO49WUkrNhaH+iTabtiQ2DQXN4y4u9TbO9RQX7tYsBHOX7fgMrjHmjtoy5xJH6GVK+y9Bmd9qPId2EgLP0X8ZPleCiZ271ammaHKdrbBQcKG8MDoq2z/jsAc4jjmZCx0+VjGu/ElUS1uClsVm25TUpuE6WdbCk8FP1zVn23LnCs7VebUgNpY9qTBttIVOn2Ozbco0a1pgP7MRrp7Dlfy0lOXP2HLnCqb1bOzvMXhx5U8iXHeEgd7UmDAn2WybkrJPM7sY168J4W7JStDm/w9O6u9MyrZXYC8RjjgXyvkIljfuPFoJLsjXXe1vcIQ532bXksSm2Xnaq47jfRNvUcXbarMQjKpOwLLY8uaaoaGhI7C8cefRSo7jnjA4yBPvCEhnGszToNNNdGcH0T3S1jRaEckBZFoBIdMKCJlWQMi0DoHbBDjXrhD6es7da5NLXQefayCuTpDwATBkWgcYNmYWzM/uwhhhvPAzrTCdEOb3MJ36iM22KWRaB2BMnenaVSKI0e5gJhVMpXavioxxt+1SHZnWAaB5W4jrhjXTpiOMMcaa8/brq2RaB8BYMe7ejzuhMYAmpWppoD/coFT7xyOSaR1CDIoj8V2oQup1uKc/pdYxSCuHZaIFcTKtgJBpBYRMKyBkWgEh0woImdZZ9pFSHoRPzEsjTINpoyzaQ6Z1CM79M1zt3yaE9xsu9K9S6reeX7kdJultH2aGkGkdQGt9DBN6Y2V8WXQ7rkmrin33gHmjpNq/5YNM6wCMyXMwThCfaQtjjHlwbtq+f4BM6wBC6H5cd8QbLxvNSCpMjzFO8kxLMq0D4GCCMfdqDGT4ZAOIWTpFT6uFPO6AQUnbxyOSaR0C7wfH24y5axZiE5dWUMMWDAx4H7TZtYRMKyBkWgEh0woImVZAyLQCQqZ1ELzNGOZsp3F8R2gKSWlOxXfS2WzaQqZ1gHCeJvQKiNMW0Jtc6FSCuL4plb+ZCXUFvsnXZtsUMq0DwIT4VKG8HThJxpWN6agWZ3wwgM22KWRaB+BcfSe8k1PO7PbdMMZCt31GFpnWAZQqzRFSb8HbjPGZjdMRBp4Lb2pkhM222TaFTOsA4dt3lbcYmsiHIFaPQz/1WBpBXB+HwcgjjqPGILd9bbZNIdM6CL4qTMoLDzfGzEojTLN48eIDbTZtIdMKCJlWQMi0AkKmFRAyrYCQaR1ieNjMgolxRShzMRM6lTCNlN7ypOuPZFoHqFQqh0Lw78YtdEF5surjG3hTCCflmBbmbA/iq5dttk3hwqxtNI1L704yLQVSyvlRnGZ2JyiujOCtwDbbpkDNXI1m10wrg+FQ035CpqUAmrb5GB+MU6MZSYVpccEZmtizbLZNwWPw+3CDK74ANvTGNReQaSnAF4pz7q7HJi7aQpdemBbi+xTU2kR3gzLhcvDmXs8r/5JL11Sr1X3ItJQopY5XKlgJte4qqAk/SCPoD1drU7lMSn9mT44l0woImVZAyLQCQqYVEDItHYyxjynlL+FKMyZ1KY0418z3J4YGRfuJdUvItOTgQ8gY1/dF7wSN307QTuF7T4V+SMzEODItOTBsn1fbVQUxmpYwxrgcVSq537LZpodMSw5MrBfipBrj1GhGUmFajPWM3spIpiUH+zPG3T+NTywPF3/x9cdphGmCqHl8dDjh87G01odp7c/TurKoVAqiR+CTaenAd10L5V4Ng5GbudQ3pZFNc03St1fh69DA4D9j7Q5X+IX3MPO848i0HMOVJ4LKst27kysT4c86PyTTcgyX5ob639MCaGLp97Scw4R3Pf1yXTBou0EBIdMKCJlWQMi0AkKmFRAyrYCQaQWETCsgZFoBIdMKCJlWQMi0AkKmFRAyrYCQaQWETCsgZFoBIdMKSGrTtB5PtM2L6B5C+T9Kbpoym4QYn9lNAsSMgZp2TSLTlBugaVNC6NWgZZy7F5GyFRN6BZfectyoipWowbSf7WVaKDd66zkeROqd8EVEuz0BRV2XeSreNBD0a6QcqN6T6BnI41UyLeeq9wRNwxaQmsccK7559P7bdCCCd3dI6X2Xc+9SUraCgchKGIhcAgOR9fXGoZFC6r0HIjTkzw+xQ35lbo03DSbXSe+hIrpHusk1LWPlAlp7LCCpTUvz9iGiO3Bhrktj2hbHLZ84f35wwNDQ0MGkbCWlPGhiYuJA6NNuTGQaTuDgcyfoSSnNP+Ggf5GylvcoCjzYYv1obVpN+HecYJN6p8bJdVvTSPnTHqYJ5T2LzmJVJOVX+PAYMO0OW9PMM2Ra/oWmSendHr7nUghzgdTGxYeNkPIrGBga1/XPsDMCgiC6SF/f/wGaYhZ1DwNVZQAAAABJRU5ErkJggg==;" vertex="1" parent="1">
          <mxGeometry x="196.32" y="640" width="40.45" height="59" as="geometry" />
        </mxCell>
        <mxCell id="Aihu2LdOpN7aua6iw54k-5" value="" style="shadow=0;dashed=0;html=1;strokeColor=none;fillColor=#4495D1;labelPosition=center;verticalLabelPosition=bottom;verticalAlign=top;align=center;outlineConnect=0;shape=mxgraph.veeam.2d.alarm;" vertex="1" parent="1">
          <mxGeometry x="604.1" y="970" width="52.8" height="37.6" as="geometry" />
        </mxCell>
        <mxCell id="Aihu2LdOpN7aua6iw54k-12" value="&lt;font style=&quot;font-size: 14px;&quot;&gt;10.20.80.X&lt;/font&gt;" style="text;html=1;align=center;verticalAlign=middle;whiteSpace=wrap;rounded=0;fontFamily=Helvetica;fontSize=11;fontColor=default;labelBackgroundColor=default;" vertex="1" parent="1">
          <mxGeometry x="596.9" y="1020" width="60" height="30" as="geometry" />
        </mxCell>
        <mxCell id="Aihu2LdOpN7aua6iw54k-13" value="" style="shadow=0;dashed=0;html=1;strokeColor=none;fillColor=#4495D1;labelPosition=center;verticalLabelPosition=bottom;verticalAlign=top;align=center;outlineConnect=0;shape=mxgraph.veeam.2d.alarm;" vertex="1" parent="1">
          <mxGeometry x="670" y="970" width="52.8" height="37.6" as="geometry" />
        </mxCell>
        <mxCell id="Aihu2LdOpN7aua6iw54k-14" value="" style="shadow=0;dashed=0;html=1;strokeColor=none;fillColor=#4495D1;labelPosition=center;verticalLabelPosition=bottom;verticalAlign=top;align=center;outlineConnect=0;shape=mxgraph.veeam.2d.alarm;" vertex="1" parent="1">
          <mxGeometry x="530" y="970" width="52.8" height="37.6" as="geometry" />
        </mxCell>
        <mxCell id="Aihu2LdOpN7aua6iw54k-17" value="&lt;font style=&quot;font-size: 14px;&quot;&gt;10.10.x.x&lt;/font&gt;" style="text;html=1;align=center;verticalAlign=middle;whiteSpace=wrap;rounded=0;fontFamily=Helvetica;fontSize=11;fontColor=default;labelBackgroundColor=default;" vertex="1" parent="1">
          <mxGeometry x="294" y="690" width="60" height="30" as="geometry" />
        </mxCell>
        <mxCell id="Aihu2LdOpN7aua6iw54k-18" value="&lt;font style=&quot;font-size: 20px;&quot;&gt;Eschpoort&lt;/font&gt;" style="text;html=1;align=center;verticalAlign=middle;whiteSpace=wrap;rounded=0;fontFamily=Helvetica;fontSize=11;fontColor=default;labelBackgroundColor=default;" vertex="1" parent="1">
          <mxGeometry x="480" y="570" width="60" height="30" as="geometry" />
        </mxCell>
        <mxCell id="Aihu2LdOpN7aua6iw54k-19" value="&lt;font style=&quot;font-size: 20px;&quot;&gt;Ariënsstaete&amp;nbsp;&lt;/font&gt;" style="text;html=1;align=center;verticalAlign=middle;whiteSpace=wrap;rounded=0;fontFamily=Helvetica;fontSize=11;fontColor=default;labelBackgroundColor=default;" vertex="1" parent="1">
          <mxGeometry x="128" y="570" width="60" height="30" as="geometry" />
        </mxCell>
      </root>
    </mxGraphModel>
  </diagram>
</mxfile>
